<svg xmlns="http://www.w3.org/2000/svg" xmlns:xlink="http://www.w3.org/1999/xlink" width="500" zoomAndPan="magnify" viewBox="0 0 375 374.999991" height="500" preserveAspectRatio="xMidYMid meet" version="1.0"><defs><clipPath id="fdede14170"><path d="M 16 172 L 347 172 L 347 277 L 16 277 Z M 16 172 " clip-rule="nonzero"/></clipPath><clipPath id="a8604a828a"><path d="M 308.296875 13.371094 C 312.253906 17.328125 316.007812 21.46875 319.554688 25.792969 C 323.105469 30.117188 326.433594 34.605469 329.542969 39.257812 C 332.648438 43.910156 335.523438 48.703125 338.160156 53.636719 C 340.796875 58.570312 343.1875 63.621094 345.328125 68.789062 C 347.46875 73.960938 349.351562 79.222656 350.976562 84.574219 C 352.597656 89.929688 353.957031 95.347656 355.050781 100.835938 C 356.140625 106.324219 356.960938 111.851562 357.507812 117.417969 C 358.058594 122.988281 358.332031 128.570312 358.332031 134.164062 C 358.332031 139.757812 358.058594 145.339844 357.507812 150.90625 C 356.960938 156.476562 356.140625 162.003906 355.050781 167.488281 C 353.957031 172.976562 352.601562 178.398438 350.976562 183.753906 C 349.351562 189.105469 347.46875 194.367188 345.328125 199.535156 C 343.1875 204.707031 340.796875 209.757812 338.160156 214.691406 C 335.523438 219.625 332.648438 224.417969 329.542969 229.070312 C 326.433594 233.722656 323.105469 238.210938 319.554688 242.535156 C 316.007812 246.859375 312.253906 251 308.296875 254.957031 C 304.339844 258.914062 300.199219 262.664062 295.875 266.214844 C 291.550781 269.765625 287.0625 273.09375 282.410156 276.199219 C 277.757812 279.308594 272.964844 282.183594 268.03125 284.820312 C 263.097656 287.457031 258.046875 289.847656 252.875 291.988281 C 247.707031 294.128906 242.445312 296.011719 237.09375 297.636719 C 231.738281 299.257812 226.316406 300.617188 220.832031 301.707031 C 215.34375 302.800781 209.816406 303.621094 204.25 304.167969 C 198.679688 304.714844 193.097656 304.992188 187.503906 304.992188 C 181.910156 304.992188 176.328125 304.714844 170.761719 304.167969 C 165.191406 303.621094 159.664062 302.800781 154.175781 301.707031 C 148.691406 300.617188 143.269531 299.257812 137.914062 297.636719 C 132.5625 296.011719 127.300781 294.128906 122.132812 291.988281 C 116.960938 289.847656 111.910156 287.457031 106.976562 284.820312 C 102.042969 282.183594 97.25 279.308594 92.597656 276.199219 C 87.945312 273.09375 83.457031 269.765625 79.132812 266.214844 C 74.808594 262.664062 70.667969 258.914062 66.710938 254.957031 C 62.753906 251 59.003906 246.859375 55.453125 242.535156 C 51.902344 238.210938 48.574219 233.722656 45.464844 229.070312 C 42.359375 224.417969 39.484375 219.625 36.847656 214.691406 C 34.210938 209.757812 31.820312 204.707031 29.679688 199.535156 C 27.539062 194.367188 25.65625 189.105469 24.03125 183.753906 C 22.410156 178.398438 21.050781 172.976562 19.960938 167.488281 C 18.867188 162.003906 18.046875 156.476562 17.5 150.90625 C 16.949219 145.339844 16.675781 139.757812 16.675781 134.164062 C 16.675781 128.570312 16.949219 122.988281 17.5 117.417969 C 18.046875 111.851562 18.867188 106.324219 19.960938 100.835938 C 21.050781 95.347656 22.410156 89.929688 24.03125 84.574219 C 25.65625 79.222656 27.539062 73.960938 29.679688 68.789062 C 31.820312 63.621094 34.210938 58.570312 36.847656 53.636719 C 39.484375 48.703125 42.359375 43.910156 45.464844 39.257812 C 48.574219 34.605469 51.902344 30.117188 55.453125 25.792969 C 59.003906 21.46875 62.753906 17.328125 66.710938 13.371094 C 70.667969 9.414062 74.808594 5.660156 79.132812 2.113281 C 83.457031 -1.4375 87.945312 -4.765625 92.597656 -7.875 C 97.25 -10.984375 102.042969 -13.855469 106.976562 -16.492188 C 111.910156 -19.128906 116.960938 -21.519531 122.132812 -23.660156 C 127.300781 -25.800781 132.5625 -27.683594 137.914062 -29.308594 C 143.269531 -30.933594 148.691406 -32.289062 154.175781 -33.382812 C 159.664062 -34.472656 165.191406 -35.292969 170.761719 -35.839844 C 176.328125 -36.390625 181.910156 -36.664062 187.503906 -36.664062 C 193.097656 -36.664062 198.679688 -36.390625 204.25 -35.839844 C 209.816406 -35.292969 215.34375 -34.472656 220.832031 -33.382812 C 226.316406 -32.289062 231.738281 -30.933594 237.09375 -29.308594 C 242.445312 -27.683594 247.707031 -25.800781 252.875 -23.660156 C 258.046875 -21.519531 263.097656 -19.128906 268.03125 -16.492188 C 272.964844 -13.855469 277.757812 -10.984375 282.410156 -7.875 C 287.0625 -4.765625 291.550781 -1.4375 295.875 2.113281 C 300.199219 5.660156 304.339844 9.414062 308.296875 13.371094 Z M 308.296875 13.371094 " clip-rule="nonzero"/></clipPath><clipPath id="61f7dd0c1b"><path d="M 16 81.136719 L 359 81.136719 L 359 194 L 16 194 Z M 16 81.136719 " clip-rule="nonzero"/></clipPath><clipPath id="f1f87d1a45"><path d="M 308.296875 13.371094 C 312.253906 17.328125 316.007812 21.46875 319.554688 25.792969 C 323.105469 30.117188 326.433594 34.605469 329.542969 39.257812 C 332.648438 43.910156 335.523438 48.703125 338.160156 53.636719 C 340.796875 58.570312 343.1875 63.621094 345.328125 68.789062 C 347.46875 73.960938 349.351562 79.222656 350.976562 84.574219 C 352.597656 89.929688 353.957031 95.347656 355.050781 100.835938 C 356.140625 106.324219 356.960938 111.851562 357.507812 117.417969 C 358.058594 122.988281 358.332031 128.570312 358.332031 134.164062 C 358.332031 139.757812 358.058594 145.339844 357.507812 150.90625 C 356.960938 156.476562 356.140625 162.003906 355.050781 167.488281 C 353.957031 172.976562 352.601562 178.398438 350.976562 183.753906 C 349.351562 189.105469 347.46875 194.367188 345.328125 199.535156 C 343.1875 204.707031 340.796875 209.757812 338.160156 214.691406 C 335.523438 219.625 332.648438 224.417969 329.542969 229.070312 C 326.433594 233.722656 323.105469 238.210938 319.554688 242.535156 C 316.007812 246.859375 312.253906 251 308.296875 254.957031 C 304.339844 258.914062 300.199219 262.664062 295.875 266.214844 C 291.550781 269.765625 287.0625 273.09375 282.410156 276.199219 C 277.757812 279.308594 272.964844 282.183594 268.03125 284.820312 C 263.097656 287.457031 258.046875 289.847656 252.875 291.988281 C 247.707031 294.128906 242.445312 296.011719 237.09375 297.636719 C 231.738281 299.257812 226.316406 300.617188 220.832031 301.707031 C 215.34375 302.800781 209.816406 303.621094 204.25 304.167969 C 198.679688 304.714844 193.097656 304.992188 187.503906 304.992188 C 181.910156 304.992188 176.328125 304.714844 170.761719 304.167969 C 165.191406 303.621094 159.664062 302.800781 154.175781 301.707031 C 148.691406 300.617188 143.269531 299.257812 137.914062 297.636719 C 132.5625 296.011719 127.300781 294.128906 122.132812 291.988281 C 116.960938 289.847656 111.910156 287.457031 106.976562 284.820312 C 102.042969 282.183594 97.25 279.308594 92.597656 276.199219 C 87.945312 273.09375 83.457031 269.765625 79.132812 266.214844 C 74.808594 262.664062 70.667969 258.914062 66.710938 254.957031 C 62.753906 251 59.003906 246.859375 55.453125 242.535156 C 51.902344 238.210938 48.574219 233.722656 45.464844 229.070312 C 42.359375 224.417969 39.484375 219.625 36.847656 214.691406 C 34.210938 209.757812 31.820312 204.707031 29.679688 199.535156 C 27.539062 194.367188 25.65625 189.105469 24.03125 183.753906 C 22.410156 178.398438 21.050781 172.976562 19.960938 167.488281 C 18.867188 162.003906 18.046875 156.476562 17.5 150.90625 C 16.949219 145.339844 16.675781 139.757812 16.675781 134.164062 C 16.675781 128.570312 16.949219 122.988281 17.5 117.417969 C 18.046875 111.851562 18.867188 106.324219 19.960938 100.835938 C 21.050781 95.347656 22.410156 89.929688 24.03125 84.574219 C 25.65625 79.222656 27.539062 73.960938 29.679688 68.789062 C 31.820312 63.621094 34.210938 58.570312 36.847656 53.636719 C 39.484375 48.703125 42.359375 43.910156 45.464844 39.257812 C 48.574219 34.605469 51.902344 30.117188 55.453125 25.792969 C 59.003906 21.46875 62.753906 17.328125 66.710938 13.371094 C 70.667969 9.414062 74.808594 5.660156 79.132812 2.113281 C 83.457031 -1.4375 87.945312 -4.765625 92.597656 -7.875 C 97.25 -10.984375 102.042969 -13.855469 106.976562 -16.492188 C 111.910156 -19.128906 116.960938 -21.519531 122.132812 -23.660156 C 127.300781 -25.800781 132.5625 -27.683594 137.914062 -29.308594 C 143.269531 -30.933594 148.691406 -32.289062 154.175781 -33.382812 C 159.664062 -34.472656 165.191406 -35.292969 170.761719 -35.839844 C 176.328125 -36.390625 181.910156 -36.664062 187.503906 -36.664062 C 193.097656 -36.664062 198.679688 -36.390625 204.25 -35.839844 C 209.816406 -35.292969 215.34375 -34.472656 220.832031 -33.382812 C 226.316406 -32.289062 231.738281 -30.933594 237.09375 -29.308594 C 242.445312 -27.683594 247.707031 -25.800781 252.875 -23.660156 C 258.046875 -21.519531 263.097656 -19.128906 268.03125 -16.492188 C 272.964844 -13.855469 277.757812 -10.984375 282.410156 -7.875 C 287.0625 -4.765625 291.550781 -1.4375 295.875 2.113281 C 300.199219 5.660156 304.339844 9.414062 308.296875 13.371094 Z M 308.296875 13.371094 " clip-rule="nonzero"/></clipPath><clipPath id="8c163e9bf7"><path d="M 16 129 L 341 129 L 341 211 L 16 211 Z M 16 129 " clip-rule="nonzero"/></clipPath><clipPath id="5a493317ea"><path d="M 308.296875 13.371094 C 312.253906 17.328125 316.007812 21.46875 319.554688 25.792969 C 323.105469 30.117188 326.433594 34.605469 329.542969 39.257812 C 332.648438 43.910156 335.523438 48.703125 338.160156 53.636719 C 340.796875 58.570312 343.1875 63.621094 345.328125 68.789062 C 347.46875 73.960938 349.351562 79.222656 350.976562 84.574219 C 352.597656 89.929688 353.957031 95.347656 355.050781 100.835938 C 356.140625 106.324219 356.960938 111.851562 357.507812 117.417969 C 358.058594 122.988281 358.332031 128.570312 358.332031 134.164062 C 358.332031 139.757812 358.058594 145.339844 357.507812 150.90625 C 356.960938 156.476562 356.140625 162.003906 355.050781 167.488281 C 353.957031 172.976562 352.601562 178.398438 350.976562 183.753906 C 349.351562 189.105469 347.46875 194.367188 345.328125 199.535156 C 343.1875 204.707031 340.796875 209.757812 338.160156 214.691406 C 335.523438 219.625 332.648438 224.417969 329.542969 229.070312 C 326.433594 233.722656 323.105469 238.210938 319.554688 242.535156 C 316.007812 246.859375 312.253906 251 308.296875 254.957031 C 304.339844 258.914062 300.199219 262.664062 295.875 266.214844 C 291.550781 269.765625 287.0625 273.09375 282.410156 276.199219 C 277.757812 279.308594 272.964844 282.183594 268.03125 284.820312 C 263.097656 287.457031 258.046875 289.847656 252.875 291.988281 C 247.707031 294.128906 242.445312 296.011719 237.09375 297.636719 C 231.738281 299.257812 226.316406 300.617188 220.832031 301.707031 C 215.34375 302.800781 209.816406 303.621094 204.25 304.167969 C 198.679688 304.714844 193.097656 304.992188 187.503906 304.992188 C 181.910156 304.992188 176.328125 304.714844 170.761719 304.167969 C 165.191406 303.621094 159.664062 302.800781 154.175781 301.707031 C 148.691406 300.617188 143.269531 299.257812 137.914062 297.636719 C 132.5625 296.011719 127.300781 294.128906 122.132812 291.988281 C 116.960938 289.847656 111.910156 287.457031 106.976562 284.820312 C 102.042969 282.183594 97.25 279.308594 92.597656 276.199219 C 87.945312 273.09375 83.457031 269.765625 79.132812 266.214844 C 74.808594 262.664062 70.667969 258.914062 66.710938 254.957031 C 62.753906 251 59.003906 246.859375 55.453125 242.535156 C 51.902344 238.210938 48.574219 233.722656 45.464844 229.070312 C 42.359375 224.417969 39.484375 219.625 36.847656 214.691406 C 34.210938 209.757812 31.820312 204.707031 29.679688 199.535156 C 27.539062 194.367188 25.65625 189.105469 24.03125 183.753906 C 22.410156 178.398438 21.050781 172.976562 19.960938 167.488281 C 18.867188 162.003906 18.046875 156.476562 17.5 150.90625 C 16.949219 145.339844 16.675781 139.757812 16.675781 134.164062 C 16.675781 128.570312 16.949219 122.988281 17.5 117.417969 C 18.046875 111.851562 18.867188 106.324219 19.960938 100.835938 C 21.050781 95.347656 22.410156 89.929688 24.03125 84.574219 C 25.65625 79.222656 27.539062 73.960938 29.679688 68.789062 C 31.820312 63.621094 34.210938 58.570312 36.847656 53.636719 C 39.484375 48.703125 42.359375 43.910156 45.464844 39.257812 C 48.574219 34.605469 51.902344 30.117188 55.453125 25.792969 C 59.003906 21.46875 62.753906 17.328125 66.710938 13.371094 C 70.667969 9.414062 74.808594 5.660156 79.132812 2.113281 C 83.457031 -1.4375 87.945312 -4.765625 92.597656 -7.875 C 97.25 -10.984375 102.042969 -13.855469 106.976562 -16.492188 C 111.910156 -19.128906 116.960938 -21.519531 122.132812 -23.660156 C 127.300781 -25.800781 132.5625 -27.683594 137.914062 -29.308594 C 143.269531 -30.933594 148.691406 -32.289062 154.175781 -33.382812 C 159.664062 -34.472656 165.191406 -35.292969 170.761719 -35.839844 C 176.328125 -36.390625 181.910156 -36.664062 187.503906 -36.664062 C 193.097656 -36.664062 198.679688 -36.390625 204.25 -35.839844 C 209.816406 -35.292969 215.34375 -34.472656 220.832031 -33.382812 C 226.316406 -32.289062 231.738281 -30.933594 237.09375 -29.308594 C 242.445312 -27.683594 247.707031 -25.800781 252.875 -23.660156 C 258.046875 -21.519531 263.097656 -19.128906 268.03125 -16.492188 C 272.964844 -13.855469 277.757812 -10.984375 282.410156 -7.875 C 287.0625 -4.765625 291.550781 -1.4375 295.875 2.113281 C 300.199219 5.660156 304.339844 9.414062 308.296875 13.371094 Z M 308.296875 13.371094 " clip-rule="nonzero"/></clipPath><clipPath id="05ac9b1061"><path d="M 16 149 L 336 149 L 336 219 L 16 219 Z M 16 149 " clip-rule="nonzero"/></clipPath><clipPath id="5b3cdf1057"><path d="M 308.296875 13.371094 C 312.253906 17.328125 316.007812 21.46875 319.554688 25.792969 C 323.105469 30.117188 326.433594 34.605469 329.542969 39.257812 C 332.648438 43.910156 335.523438 48.703125 338.160156 53.636719 C 340.796875 58.570312 343.1875 63.621094 345.328125 68.789062 C 347.46875 73.960938 349.351562 79.222656 350.976562 84.574219 C 352.597656 89.929688 353.957031 95.347656 355.050781 100.835938 C 356.140625 106.324219 356.960938 111.851562 357.507812 117.417969 C 358.058594 122.988281 358.332031 128.570312 358.332031 134.164062 C 358.332031 139.757812 358.058594 145.339844 357.507812 150.90625 C 356.960938 156.476562 356.140625 162.003906 355.050781 167.488281 C 353.957031 172.976562 352.601562 178.398438 350.976562 183.753906 C 349.351562 189.105469 347.46875 194.367188 345.328125 199.535156 C 343.1875 204.707031 340.796875 209.757812 338.160156 214.691406 C 335.523438 219.625 332.648438 224.417969 329.542969 229.070312 C 326.433594 233.722656 323.105469 238.210938 319.554688 242.535156 C 316.007812 246.859375 312.253906 251 308.296875 254.957031 C 304.339844 258.914062 300.199219 262.664062 295.875 266.214844 C 291.550781 269.765625 287.0625 273.09375 282.410156 276.199219 C 277.757812 279.308594 272.964844 282.183594 268.03125 284.820312 C 263.097656 287.457031 258.046875 289.847656 252.875 291.988281 C 247.707031 294.128906 242.445312 296.011719 237.09375 297.636719 C 231.738281 299.257812 226.316406 300.617188 220.832031 301.707031 C 215.34375 302.800781 209.816406 303.621094 204.25 304.167969 C 198.679688 304.714844 193.097656 304.992188 187.503906 304.992188 C 181.910156 304.992188 176.328125 304.714844 170.761719 304.167969 C 165.191406 303.621094 159.664062 302.800781 154.175781 301.707031 C 148.691406 300.617188 143.269531 299.257812 137.914062 297.636719 C 132.5625 296.011719 127.300781 294.128906 122.132812 291.988281 C 116.960938 289.847656 111.910156 287.457031 106.976562 284.820312 C 102.042969 282.183594 97.25 279.308594 92.597656 276.199219 C 87.945312 273.09375 83.457031 269.765625 79.132812 266.214844 C 74.808594 262.664062 70.667969 258.914062 66.710938 254.957031 C 62.753906 251 59.003906 246.859375 55.453125 242.535156 C 51.902344 238.210938 48.574219 233.722656 45.464844 229.070312 C 42.359375 224.417969 39.484375 219.625 36.847656 214.691406 C 34.210938 209.757812 31.820312 204.707031 29.679688 199.535156 C 27.539062 194.367188 25.65625 189.105469 24.03125 183.753906 C 22.410156 178.398438 21.050781 172.976562 19.960938 167.488281 C 18.867188 162.003906 18.046875 156.476562 17.5 150.90625 C 16.949219 145.339844 16.675781 139.757812 16.675781 134.164062 C 16.675781 128.570312 16.949219 122.988281 17.5 117.417969 C 18.046875 111.851562 18.867188 106.324219 19.960938 100.835938 C 21.050781 95.347656 22.410156 89.929688 24.03125 84.574219 C 25.65625 79.222656 27.539062 73.960938 29.679688 68.789062 C 31.820312 63.621094 34.210938 58.570312 36.847656 53.636719 C 39.484375 48.703125 42.359375 43.910156 45.464844 39.257812 C 48.574219 34.605469 51.902344 30.117188 55.453125 25.792969 C 59.003906 21.46875 62.753906 17.328125 66.710938 13.371094 C 70.667969 9.414062 74.808594 5.660156 79.132812 2.113281 C 83.457031 -1.4375 87.945312 -4.765625 92.597656 -7.875 C 97.25 -10.984375 102.042969 -13.855469 106.976562 -16.492188 C 111.910156 -19.128906 116.960938 -21.519531 122.132812 -23.660156 C 127.300781 -25.800781 132.5625 -27.683594 137.914062 -29.308594 C 143.269531 -30.933594 148.691406 -32.289062 154.175781 -33.382812 C 159.664062 -34.472656 165.191406 -35.292969 170.761719 -35.839844 C 176.328125 -36.390625 181.910156 -36.664062 187.503906 -36.664062 C 193.097656 -36.664062 198.679688 -36.390625 204.25 -35.839844 C 209.816406 -35.292969 215.34375 -34.472656 220.832031 -33.382812 C 226.316406 -32.289062 231.738281 -30.933594 237.09375 -29.308594 C 242.445312 -27.683594 247.707031 -25.800781 252.875 -23.660156 C 258.046875 -21.519531 263.097656 -19.128906 268.03125 -16.492188 C 272.964844 -13.855469 277.757812 -10.984375 282.410156 -7.875 C 287.0625 -4.765625 291.550781 -1.4375 295.875 2.113281 C 300.199219 5.660156 304.339844 9.414062 308.296875 13.371094 Z M 308.296875 13.371094 " clip-rule="nonzero"/></clipPath><clipPath id="4c3128cc09"><path d="M 83 258 L 324 258 L 324 291 L 83 291 Z M 83 258 " clip-rule="nonzero"/></clipPath><clipPath id="9da56486ec"><path d="M 308.296875 13.371094 C 312.253906 17.328125 316.007812 21.46875 319.554688 25.792969 C 323.105469 30.117188 326.433594 34.605469 329.542969 39.257812 C 332.648438 43.910156 335.523438 48.703125 338.160156 53.636719 C 340.796875 58.570312 343.1875 63.621094 345.328125 68.789062 C 347.46875 73.960938 349.351562 79.222656 350.976562 84.574219 C 352.597656 89.929688 353.957031 95.347656 355.050781 100.835938 C 356.140625 106.324219 356.960938 111.851562 357.507812 117.417969 C 358.058594 122.988281 358.332031 128.570312 358.332031 134.164062 C 358.332031 139.757812 358.058594 145.339844 357.507812 150.90625 C 356.960938 156.476562 356.140625 162.003906 355.050781 167.488281 C 353.957031 172.976562 352.601562 178.398438 350.976562 183.753906 C 349.351562 189.105469 347.46875 194.367188 345.328125 199.535156 C 343.1875 204.707031 340.796875 209.757812 338.160156 214.691406 C 335.523438 219.625 332.648438 224.417969 329.542969 229.070312 C 326.433594 233.722656 323.105469 238.210938 319.554688 242.535156 C 316.007812 246.859375 312.253906 251 308.296875 254.957031 C 304.339844 258.914062 300.199219 262.664062 295.875 266.214844 C 291.550781 269.765625 287.0625 273.09375 282.410156 276.199219 C 277.757812 279.308594 272.964844 282.183594 268.03125 284.820312 C 263.097656 287.457031 258.046875 289.847656 252.875 291.988281 C 247.707031 294.128906 242.445312 296.011719 237.09375 297.636719 C 231.738281 299.257812 226.316406 300.617188 220.832031 301.707031 C 215.34375 302.800781 209.816406 303.621094 204.25 304.167969 C 198.679688 304.714844 193.097656 304.992188 187.503906 304.992188 C 181.910156 304.992188 176.328125 304.714844 170.761719 304.167969 C 165.191406 303.621094 159.664062 302.800781 154.175781 301.707031 C 148.691406 300.617188 143.269531 299.257812 137.914062 297.636719 C 132.5625 296.011719 127.300781 294.128906 122.132812 291.988281 C 116.960938 289.847656 111.910156 287.457031 106.976562 284.820312 C 102.042969 282.183594 97.25 279.308594 92.597656 276.199219 C 87.945312 273.09375 83.457031 269.765625 79.132812 266.214844 C 74.808594 262.664062 70.667969 258.914062 66.710938 254.957031 C 62.753906 251 59.003906 246.859375 55.453125 242.535156 C 51.902344 238.210938 48.574219 233.722656 45.464844 229.070312 C 42.359375 224.417969 39.484375 219.625 36.847656 214.691406 C 34.210938 209.757812 31.820312 204.707031 29.679688 199.535156 C 27.539062 194.367188 25.65625 189.105469 24.03125 183.753906 C 22.410156 178.398438 21.050781 172.976562 19.960938 167.488281 C 18.867188 162.003906 18.046875 156.476562 17.5 150.90625 C 16.949219 145.339844 16.675781 139.757812 16.675781 134.164062 C 16.675781 128.570312 16.949219 122.988281 17.5 117.417969 C 18.046875 111.851562 18.867188 106.324219 19.960938 100.835938 C 21.050781 95.347656 22.410156 89.929688 24.03125 84.574219 C 25.65625 79.222656 27.539062 73.960938 29.679688 68.789062 C 31.820312 63.621094 34.210938 58.570312 36.847656 53.636719 C 39.484375 48.703125 42.359375 43.910156 45.464844 39.257812 C 48.574219 34.605469 51.902344 30.117188 55.453125 25.792969 C 59.003906 21.46875 62.753906 17.328125 66.710938 13.371094 C 70.667969 9.414062 74.808594 5.660156 79.132812 2.113281 C 83.457031 -1.4375 87.945312 -4.765625 92.597656 -7.875 C 97.25 -10.984375 102.042969 -13.855469 106.976562 -16.492188 C 111.910156 -19.128906 116.960938 -21.519531 122.132812 -23.660156 C 127.300781 -25.800781 132.5625 -27.683594 137.914062 -29.308594 C 143.269531 -30.933594 148.691406 -32.289062 154.175781 -33.382812 C 159.664062 -34.472656 165.191406 -35.292969 170.761719 -35.839844 C 176.328125 -36.390625 181.910156 -36.664062 187.503906 -36.664062 C 193.097656 -36.664062 198.679688 -36.390625 204.25 -35.839844 C 209.816406 -35.292969 215.34375 -34.472656 220.832031 -33.382812 C 226.316406 -32.289062 231.738281 -30.933594 237.09375 -29.308594 C 242.445312 -27.683594 247.707031 -25.800781 252.875 -23.660156 C 258.046875 -21.519531 263.097656 -19.128906 268.03125 -16.492188 C 272.964844 -13.855469 277.757812 -10.984375 282.410156 -7.875 C 287.0625 -4.765625 291.550781 -1.4375 295.875 2.113281 C 300.199219 5.660156 304.339844 9.414062 308.296875 13.371094 Z M 308.296875 13.371094 " clip-rule="nonzero"/></clipPath><clipPath id="29158743e1"><path d="M 104 274 L 282 274 L 282 294 L 104 294 Z M 104 274 " clip-rule="nonzero"/></clipPath><clipPath id="f9b48f63e8"><path d="M 308.296875 13.371094 C 312.253906 17.328125 316.007812 21.46875 319.554688 25.792969 C 323.105469 30.117188 326.433594 34.605469 329.542969 39.257812 C 332.648438 43.910156 335.523438 48.703125 338.160156 53.636719 C 340.796875 58.570312 343.1875 63.621094 345.328125 68.789062 C 347.46875 73.960938 349.351562 79.222656 350.976562 84.574219 C 352.597656 89.929688 353.957031 95.347656 355.050781 100.835938 C 356.140625 106.324219 356.960938 111.851562 357.507812 117.417969 C 358.058594 122.988281 358.332031 128.570312 358.332031 134.164062 C 358.332031 139.757812 358.058594 145.339844 357.507812 150.90625 C 356.960938 156.476562 356.140625 162.003906 355.050781 167.488281 C 353.957031 172.976562 352.601562 178.398438 350.976562 183.753906 C 349.351562 189.105469 347.46875 194.367188 345.328125 199.535156 C 343.1875 204.707031 340.796875 209.757812 338.160156 214.691406 C 335.523438 219.625 332.648438 224.417969 329.542969 229.070312 C 326.433594 233.722656 323.105469 238.210938 319.554688 242.535156 C 316.007812 246.859375 312.253906 251 308.296875 254.957031 C 304.339844 258.914062 300.199219 262.664062 295.875 266.214844 C 291.550781 269.765625 287.0625 273.09375 282.410156 276.199219 C 277.757812 279.308594 272.964844 282.183594 268.03125 284.820312 C 263.097656 287.457031 258.046875 289.847656 252.875 291.988281 C 247.707031 294.128906 242.445312 296.011719 237.09375 297.636719 C 231.738281 299.257812 226.316406 300.617188 220.832031 301.707031 C 215.34375 302.800781 209.816406 303.621094 204.25 304.167969 C 198.679688 304.714844 193.097656 304.992188 187.503906 304.992188 C 181.910156 304.992188 176.328125 304.714844 170.761719 304.167969 C 165.191406 303.621094 159.664062 302.800781 154.175781 301.707031 C 148.691406 300.617188 143.269531 299.257812 137.914062 297.636719 C 132.5625 296.011719 127.300781 294.128906 122.132812 291.988281 C 116.960938 289.847656 111.910156 287.457031 106.976562 284.820312 C 102.042969 282.183594 97.25 279.308594 92.597656 276.199219 C 87.945312 273.09375 83.457031 269.765625 79.132812 266.214844 C 74.808594 262.664062 70.667969 258.914062 66.710938 254.957031 C 62.753906 251 59.003906 246.859375 55.453125 242.535156 C 51.902344 238.210938 48.574219 233.722656 45.464844 229.070312 C 42.359375 224.417969 39.484375 219.625 36.847656 214.691406 C 34.210938 209.757812 31.820312 204.707031 29.679688 199.535156 C 27.539062 194.367188 25.65625 189.105469 24.03125 183.753906 C 22.410156 178.398438 21.050781 172.976562 19.960938 167.488281 C 18.867188 162.003906 18.046875 156.476562 17.5 150.90625 C 16.949219 145.339844 16.675781 139.757812 16.675781 134.164062 C 16.675781 128.570312 16.949219 122.988281 17.5 117.417969 C 18.046875 111.851562 18.867188 106.324219 19.960938 100.835938 C 21.050781 95.347656 22.410156 89.929688 24.03125 84.574219 C 25.65625 79.222656 27.539062 73.960938 29.679688 68.789062 C 31.820312 63.621094 34.210938 58.570312 36.847656 53.636719 C 39.484375 48.703125 42.359375 43.910156 45.464844 39.257812 C 48.574219 34.605469 51.902344 30.117188 55.453125 25.792969 C 59.003906 21.46875 62.753906 17.328125 66.710938 13.371094 C 70.667969 9.414062 74.808594 5.660156 79.132812 2.113281 C 83.457031 -1.4375 87.945312 -4.765625 92.597656 -7.875 C 97.25 -10.984375 102.042969 -13.855469 106.976562 -16.492188 C 111.910156 -19.128906 116.960938 -21.519531 122.132812 -23.660156 C 127.300781 -25.800781 132.5625 -27.683594 137.914062 -29.308594 C 143.269531 -30.933594 148.691406 -32.289062 154.175781 -33.382812 C 159.664062 -34.472656 165.191406 -35.292969 170.761719 -35.839844 C 176.328125 -36.390625 181.910156 -36.664062 187.503906 -36.664062 C 193.097656 -36.664062 198.679688 -36.390625 204.25 -35.839844 C 209.816406 -35.292969 215.34375 -34.472656 220.832031 -33.382812 C 226.316406 -32.289062 231.738281 -30.933594 237.09375 -29.308594 C 242.445312 -27.683594 247.707031 -25.800781 252.875 -23.660156 C 258.046875 -21.519531 263.097656 -19.128906 268.03125 -16.492188 C 272.964844 -13.855469 277.757812 -10.984375 282.410156 -7.875 C 287.0625 -4.765625 291.550781 -1.4375 295.875 2.113281 C 300.199219 5.660156 304.339844 9.414062 308.296875 13.371094 Z M 308.296875 13.371094 " clip-rule="nonzero"/></clipPath></defs><g clip-path="url(#fdede14170)"><g clip-path="url(#a8604a828a)"><path fill="#5ce1e6" d="M 15.578125 172.050781 C 26.882812 172.054688 38.1875 172.054688 49.492188 172.054688 C 49.988281 172.273438 50.488281 172.492188 50.984375 172.710938 C 53.695312 173.183594 56.402344 173.65625 59.109375 174.125 L 59.414062 174.25 L 59.746094 174.234375 C 60.996094 174.515625 62.246094 174.796875 63.5 175.078125 L 63.414062 175.035156 C 63.695312 175.167969 63.976562 175.296875 64.257812 175.429688 C 64.75 175.507812 65.246094 175.589844 65.742188 175.671875 C 66.984375 176.046875 68.230469 176.425781 69.476562 176.800781 C 69.96875 176.910156 70.457031 177.023438 70.949219 177.132812 C 72.398438 177.652344 73.84375 178.171875 75.289062 178.695312 C 78.015625 179.859375 80.742188 181.027344 83.464844 182.191406 C 88.640625 184.941406 93.816406 187.6875 98.996094 190.4375 L 100.425781 191.277344 C 105.042969 194.214844 109.449219 197.570312 114.316406 200.003906 C 123.332031 204.507812 132.613281 208.472656 141.78125 212.664062 L 141.769531 212.640625 C 148.929688 214.546875 156.089844 216.449219 163.25 218.355469 C 163.742188 218.402344 164.234375 218.445312 164.722656 218.492188 C 164.84375 218.664062 164.996094 218.695312 165.179688 218.59375 C 172.804688 219.519531 180.414062 221.078125 188.050781 221.242188 C 205.554688 221.617188 223.074219 221.3125 240.585938 221.257812 C 241.421875 221.257812 242.257812 221.03125 243.09375 220.910156 C 243.800781 220.855469 244.507812 220.800781 245.214844 220.746094 C 260.015625 220.738281 274.847656 220.164062 289.515625 222.9375 C 290.503906 223.199219 291.488281 223.460938 292.476562 223.71875 C 293.214844 223.949219 293.957031 224.179688 294.695312 224.410156 C 295.4375 224.652344 296.179688 224.890625 296.921875 225.132812 L 296.933594 225.140625 C 297.414062 225.335938 297.894531 225.53125 298.375 225.730469 C 298.625 225.78125 298.875 225.835938 299.125 225.886719 C 299.355469 226.011719 299.589844 226.140625 299.824219 226.265625 C 300.328125 226.402344 300.832031 226.539062 301.335938 226.675781 C 302.054688 226.9375 302.777344 227.203125 303.496094 227.46875 L 303.484375 227.4375 C 305.449219 228.253906 307.414062 229.074219 309.382812 229.890625 C 309.878906 230.097656 310.378906 230.300781 310.875 230.507812 C 311.378906 230.730469 311.878906 230.949219 312.378906 231.171875 C 313.625 231.597656 314.875 232.019531 316.121094 232.441406 C 316.34375 232.496094 316.570312 232.535156 316.796875 232.566406 C 319.003906 233.800781 321.210938 235.03125 323.414062 236.265625 C 324.101562 237.765625 328.613281 239.199219 323.492188 240.796875 C 320.308594 239.746094 317.128906 238.695312 313.945312 237.644531 L 313.960938 237.667969 C 313.703125 237.476562 313.441406 237.285156 313.183594 237.09375 C 312.648438 236.8125 312.109375 236.53125 311.574219 236.25 C 310.136719 235.558594 308.703125 234.867188 307.265625 234.171875 C 307.0625 234.046875 306.839844 233.984375 306.601562 233.976562 C 306.328125 233.796875 306.058594 233.621094 305.785156 233.441406 C 305.542969 233.382812 305.296875 233.324219 305.050781 233.269531 C 304.816406 233.148438 304.582031 233.03125 304.34375 232.910156 C 301.894531 232.035156 299.441406 231.160156 296.988281 230.289062 C 295.730469 229.847656 294.476562 229.410156 293.21875 228.96875 C 292.988281 228.875 292.746094 228.832031 292.496094 228.835938 C 292.019531 228.683594 291.542969 228.53125 291.0625 228.375 C 290.578125 228.273438 290.09375 228.171875 289.605469 228.066406 C 289.097656 227.890625 288.589844 227.714844 288.082031 227.535156 C 287.589844 227.476562 287.09375 227.417969 286.601562 227.355469 C 284.371094 226.96875 282.144531 226.582031 279.917969 226.195312 C 277.765625 226.066406 275.617188 225.933594 273.46875 225.800781 C 272.542969 225.617188 271.621094 225.285156 270.695312 225.277344 C 262.800781 225.238281 254.910156 225.253906 247.015625 225.253906 C 246.972656 225.425781 246.933594 225.59375 246.894531 225.761719 C 248.808594 226.253906 250.71875 226.742188 252.632812 227.230469 C 252.855469 227.351562 253.09375 227.394531 253.347656 227.363281 C 253.832031 227.542969 254.316406 227.722656 254.800781 227.898438 L 256.121094 228.183594 C 256.421875 228.339844 256.726562 228.5 257.03125 228.65625 C 257.632812 228.78125 258.234375 228.910156 258.835938 229.035156 C 259.21875 229.191406 259.601562 229.347656 259.984375 229.5 C 263.425781 230.761719 266.867188 232.019531 270.3125 233.28125 C 272.28125 234.027344 274.253906 234.773438 276.222656 235.519531 C 276.875 235.789062 277.523438 236.0625 278.175781 236.332031 C 279.746094 237.007812 281.320312 237.6875 282.890625 238.367188 C 284.339844 238.953125 285.792969 239.53125 287.242188 240.125 C 288.917969 240.816406 290.585938 241.523438 292.261719 242.226562 C 294.042969 242.972656 295.828125 243.71875 297.609375 244.464844 C 298.109375 244.675781 298.613281 244.886719 299.113281 245.097656 C 300.351562 245.566406 301.589844 246.03125 302.832031 246.5 L 303.050781 246.660156 L 303.324219 246.65625 C 304.867188 247.144531 306.410156 247.632812 307.953125 248.121094 L 307.929688 248.09375 C 312.359375 249.097656 316.785156 250.101562 321.214844 251.105469 L 321.207031 251.070312 C 321.960938 251.234375 322.714844 251.398438 323.46875 251.5625 C 324.449219 251.667969 325.425781 251.777344 326.402344 251.886719 C 327.164062 252.027344 327.921875 252.167969 328.683594 252.3125 C 329.65625 252.367188 330.628906 252.425781 331.605469 252.484375 C 334.566406 252.695312 337.527344 252.910156 340.488281 253.125 C 342.414062 253.417969 344.34375 253.710938 346.269531 254.003906 C 345.8125 254.96875 345.359375 255.933594 344.90625 256.894531 C 344.167969 256.945312 343.433594 256.996094 342.699219 257.046875 L 341.984375 257.101562 C 340.675781 257.246094 339.367188 257.390625 338.054688 257.535156 C 337.714844 257.539062 337.371094 257.542969 337.03125 257.542969 C 336.421875 257.5 335.808594 257.457031 335.195312 257.414062 C 335.042969 257.230469 334.859375 257.195312 334.648438 257.304688 C 332.179688 257.164062 329.714844 257.023438 327.246094 256.882812 C 323.804688 256.355469 320.363281 255.832031 316.921875 255.308594 L 316.949219 255.332031 C 316.433594 255.179688 315.917969 255.027344 315.40625 254.875 C 314.757812 254.761719 314.109375 254.644531 313.460938 254.53125 L 312.386719 254.261719 C 311.6875 254.148438 310.988281 254.035156 310.285156 253.917969 C 300.492188 250.125 290.753906 246.191406 280.894531 242.570312 C 269.546875 238.40625 258.097656 234.519531 246.695312 230.511719 C 246.226562 230.4375 245.765625 230.359375 245.296875 230.285156 C 237.085938 227.574219 228.660156 226.636719 220.011719 226.351562 C 202.464844 225.773438 184.894531 225.066406 167.417969 223.519531 C 159.871094 222.847656 152.566406 220.132812 147.375 228.230469 C 147.246094 228.433594 147.109375 228.632812 146.972656 228.832031 C 146.726562 229.058594 146.476562 229.28125 146.230469 229.507812 C 143.191406 231.574219 140.152344 233.640625 136.472656 236.140625 C 137.898438 236.140625 138.390625 236.179688 138.875 236.136719 C 153.886719 234.703125 168.828125 235.765625 183.714844 237.609375 C 193.421875 238.8125 203.0625 240.539062 212.730469 242.03125 C 212.953125 242.15625 213.1875 242.195312 213.4375 242.148438 C 217.652344 243.269531 221.882812 244.328125 226.074219 245.527344 C 235.894531 248.324219 245.699219 251.191406 255.507812 254.027344 L 255.5 254.003906 C 268.078125 257.878906 280.65625 261.75 293.230469 265.625 C 293.601562 265.703125 293.972656 265.785156 294.34375 265.863281 C 304.203125 267.835938 314.058594 269.808594 323.914062 271.785156 C 327.46875 272.195312 331.019531 272.605469 334.570312 273.015625 C 338.21875 273.847656 342.3125 271.734375 345.632812 274.707031 C 344.617188 275.289062 343.601562 275.867188 342.585938 276.449219 C 335.492188 276.375 328.398438 276.296875 321.300781 276.222656 L 319.171875 276.0625 C 318.160156 275.871094 317.148438 275.679688 316.136719 275.488281 C 315.652344 275.441406 315.164062 275.398438 314.675781 275.351562 C 314.441406 275.257812 314.203125 275.164062 313.96875 275.066406 C 308.113281 273.804688 302.15625 272.890625 296.421875 271.210938 C 272.699219 264.265625 249.1875 256.554688 225.316406 250.199219 C 211.304688 246.46875 196.753906 244.757812 182.449219 242.140625 C 182.085938 242.113281 181.722656 242.085938 181.359375 242.054688 C 179.25 241.808594 177.140625 241.5625 175.035156 241.320312 C 174.582031 241.273438 174.128906 241.226562 173.679688 241.183594 C 169.707031 240.984375 165.738281 240.78125 161.765625 240.582031 C 160.808594 240.539062 159.851562 240.496094 158.890625 240.457031 C 151.1875 240.664062 143.484375 240.871094 135.785156 241.082031 C 135.335938 241.195312 134.886719 241.3125 134.4375 241.425781 C 131.671875 241.816406 128.742188 241.746094 126.175781 242.683594 C 117.890625 245.71875 109.738281 249.121094 101.535156 252.382812 L 101.367188 252.277344 L 101.210938 252.402344 C 92.039062 253.875 84.1875 258.214844 76.839844 263.644531 C 76.347656 263.886719 75.859375 264.128906 75.371094 264.375 C 75.042969 264.558594 74.71875 264.742188 74.390625 264.925781 C 74.164062 264.925781 73.988281 265.023438 73.871094 265.214844 C 73.652344 265.40625 73.433594 265.597656 73.214844 265.789062 C 72.941406 266.023438 72.671875 266.261719 72.402344 266.5 C 70.855469 268.199219 69.308594 269.894531 67.765625 271.59375 C 67.3125 272.242188 66.867188 272.890625 66.414062 273.539062 C 65.457031 273.664062 64.5 273.792969 63.542969 273.921875 C 63.570312 272.257812 63.601562 270.59375 63.628906 268.933594 C 64.085938 268.367188 64.542969 267.800781 64.996094 267.234375 L 65.007812 267.222656 C 65.460938 266.722656 65.910156 266.222656 66.363281 265.726562 C 67.886719 264.273438 69.414062 262.820312 70.941406 261.371094 C 72.261719 260.414062 73.578125 259.460938 74.898438 258.503906 C 75.09375 258.523438 75.242188 258.453125 75.347656 258.289062 C 77.65625 256.890625 79.964844 255.492188 82.273438 254.09375 C 82.921875 253.78125 83.570312 253.464844 84.21875 253.152344 C 89.691406 251.234375 95.160156 249.3125 100.632812 247.394531 C 101.066406 247.308594 101.503906 247.226562 101.9375 247.140625 C 106.203125 245.503906 110.464844 243.867188 114.726562 242.230469 C 115.390625 241.925781 116.050781 241.625 116.714844 241.324219 C 120.699219 239.183594 124.6875 237.042969 128.671875 234.902344 C 130.464844 233.90625 132.253906 232.914062 134.046875 231.921875 C 134.230469 231.957031 134.359375 231.890625 134.433594 231.71875 C 135.171875 231.253906 135.914062 230.785156 136.652344 230.316406 C 136.929688 230.144531 137.207031 229.96875 137.484375 229.792969 C 140.371094 227.503906 143.261719 225.214844 146.148438 222.925781 C 148.511719 219.511719 145.46875 219.285156 143.496094 218.425781 C 141.234375 217.648438 138.976562 216.871094 136.714844 216.09375 C 136.203125 215.914062 135.691406 215.730469 135.183594 215.550781 C 131.820312 214.039062 128.457031 212.527344 124.9375 210.945312 C 124.234375 212.132812 123.691406 213.050781 123.152344 213.96875 C 122.953125 214.199219 122.757812 214.429688 122.558594 214.660156 C 121.53125 215.914062 120.503906 217.167969 119.472656 218.421875 C 119.28125 218.667969 119.085938 218.914062 118.894531 219.164062 C 118.15625 219.917969 117.414062 220.675781 116.675781 221.429688 L 116.695312 221.410156 C 116.421875 221.660156 116.144531 221.910156 115.871094 222.160156 C 115.632812 222.355469 115.398438 222.554688 115.164062 222.75 C 113.707031 223.792969 112.25 224.835938 110.792969 225.878906 L 110.800781 225.871094 C 110.460938 226.089844 110.117188 226.308594 109.773438 226.53125 C 109.585938 226.488281 109.433594 226.550781 109.324219 226.707031 C 109.039062 226.910156 108.75 227.117188 108.464844 227.320312 C 108 227.546875 107.539062 227.769531 107.078125 227.996094 C 105.558594 228.746094 104.039062 229.5 102.519531 230.25 C 102.304688 230.222656 102.109375 230.277344 101.941406 230.414062 C 101.570312 230.585938 101.199219 230.757812 100.828125 230.929688 C 100.464844 231.015625 100.101562 231.101562 99.738281 231.1875 C 97.5 231.859375 95.261719 232.53125 93.023438 233.203125 C 90.566406 233.707031 88.109375 234.214844 85.652344 234.714844 L 85.679688 234.722656 C 80.511719 235.761719 75.34375 236.800781 70.179688 237.835938 C 69.808594 238 69.441406 238.164062 69.070312 238.324219 C 68.707031 238.40625 68.347656 238.484375 67.984375 238.566406 C 65.9375 239.234375 63.890625 239.90625 61.839844 240.574219 C 59.703125 241.359375 57.5625 242.148438 55.421875 242.9375 C 50.714844 245.308594 46.011719 247.679688 41.308594 250.050781 C 40.839844 250.363281 40.371094 250.675781 39.90625 250.984375 C 39.128906 251.464844 38.355469 251.945312 37.578125 252.425781 C 36.839844 252.199219 36.097656 251.96875 35.355469 251.742188 C 36.40625 249.828125 37.457031 247.917969 38.507812 246.007812 C 38.972656 245.691406 39.4375 245.375 39.90625 245.058594 C 40.222656 244.847656 40.542969 244.636719 40.863281 244.425781 C 41.082031 244.453125 41.257812 244.382812 41.398438 244.214844 C 41.660156 244.019531 41.921875 243.828125 42.183594 243.632812 L 45.902344 241.582031 L 51.207031 239.273438 C 51.410156 239.304688 51.578125 239.246094 51.71875 239.097656 C 52.703125 238.769531 53.6875 238.441406 54.667969 238.113281 C 54.902344 237.96875 55.136719 237.824219 55.371094 237.679688 L 55.402344 237.667969 C 56.636719 237.1875 57.871094 236.707031 59.105469 236.226562 L 59.109375 236.222656 C 60.601562 235.738281 62.09375 235.253906 63.585938 234.769531 C 64.5625 234.480469 65.539062 234.191406 66.515625 233.898438 C 67.242188 233.691406 67.972656 233.480469 68.699219 233.269531 C 69.929688 232.980469 71.160156 232.695312 72.390625 232.40625 C 75.640625 231.730469 78.886719 231.050781 82.132812 230.375 C 82.824219 230.292969 83.515625 230.207031 84.207031 230.121094 C 88.664062 229.019531 93.125 227.914062 97.582031 226.808594 L 99.003906 226.445312 C 99.269531 226.273438 99.53125 226.101562 99.796875 225.929688 L 99.769531 225.957031 C 101.765625 224.988281 103.765625 224.023438 105.761719 223.054688 L 105.753906 223.089844 C 107.371094 222.046875 108.984375 221.003906 110.601562 219.960938 C 111.644531 219.160156 112.691406 218.359375 113.734375 217.5625 C 114.300781 216.917969 114.871094 216.277344 115.4375 215.636719 C 115.628906 215.394531 115.824219 215.15625 116.015625 214.914062 C 116.257812 214.640625 116.5 214.363281 116.742188 214.089844 L 116.734375 214.101562 C 116.949219 213.839844 117.167969 213.578125 117.386719 213.316406 L 117.417969 213.273438 C 118.628906 211.898438 119.835938 210.523438 121.304688 208.851562 C 119.710938 208.1875 118.617188 207.734375 117.527344 207.28125 C 114.578125 205.59375 111.632812 203.90625 108.683594 202.222656 C 107.578125 201.441406 106.472656 200.664062 105.285156 199.828125 C 104.445312 200.792969 103.839844 201.488281 103.230469 202.179688 C 99.816406 204.433594 96.554688 206.96875 92.957031 208.871094 C 86.574219 212.242188 79.507812 213.363281 72.421875 214.238281 C 71.910156 214.386719 71.394531 214.53125 70.882812 214.679688 C 70.402344 214.746094 69.917969 214.8125 69.4375 214.878906 C 67.945312 215.097656 66.453125 215.3125 64.957031 215.527344 C 63.753906 215.613281 62.550781 215.695312 61.347656 215.78125 C 60.839844 215.925781 60.332031 216.066406 59.824219 216.210938 C 59.335938 216.273438 58.847656 216.335938 58.355469 216.402344 C 57.347656 216.597656 56.34375 216.796875 55.335938 216.996094 C 52.164062 217.769531 48.992188 218.542969 45.820312 219.316406 C 43.632812 220.046875 41.445312 220.773438 39.261719 221.5 C 38.5 221.800781 37.742188 222.101562 36.984375 222.402344 C 35.945312 223.027344 34.910156 223.65625 33.871094 224.28125 L 33.890625 224.269531 C 32.179688 225.292969 30.46875 226.316406 28.757812 227.339844 C 28.507812 227.519531 28.253906 227.699219 28 227.878906 C 25.816406 228.953125 23.628906 230.023438 21.445312 231.097656 L 20.714844 230.320312 C 20.90625 229.332031 21.097656 228.34375 21.289062 227.355469 C 21.628906 226.972656 21.964844 226.59375 22.304688 226.210938 C 25.183594 224.132812 28.066406 222.050781 30.945312 219.972656 C 31.960938 219.445312 32.980469 218.921875 33.996094 218.398438 C 36.980469 217.265625 39.960938 216.132812 42.941406 215 C 43.414062 214.886719 43.886719 214.777344 44.359375 214.664062 L 45.480469 214.199219 C 46.007812 213.917969 46.507812 213.464844 47.0625 213.378906 C 52.816406 212.472656 58.578125 211.625 64.335938 210.757812 C 64.605469 210.65625 64.871094 210.546875 65.140625 210.441406 C 65.59375 210.402344 66.046875 210.363281 66.5 210.320312 C 70.722656 209.621094 74.949219 208.917969 79.171875 208.21875 C 79.621094 208.160156 80.070312 208.101562 80.523438 208.042969 C 82.011719 207.597656 83.5 207.148438 84.988281 206.699219 C 85.714844 206.421875 86.445312 206.144531 87.171875 205.867188 C 89.226562 204.832031 91.28125 203.796875 93.335938 202.761719 L 93.65625 202.648438 C 96.273438 201.109375 98.890625 199.574219 102.355469 197.539062 C 100.277344 196.890625 99.292969 196.582031 98.304688 196.273438 C 96.984375 195.324219 95.660156 194.371094 94.339844 193.421875 L 91.625 191.894531 L 91.632812 191.902344 C 90.417969 191.144531 89.164062 190.445312 88.003906 189.613281 C 86.378906 188.445312 85.15625 188.589844 84.289062 190.480469 L 84.253906 190.503906 C 82.984375 191.457031 81.714844 192.410156 80.445312 193.363281 C 80.1875 193.375 79.976562 193.480469 79.8125 193.683594 C 79.289062 194.058594 78.761719 194.4375 78.238281 194.816406 L 78.257812 194.792969 C 76.289062 195.796875 74.316406 196.800781 72.34375 197.800781 C 71.859375 198.015625 71.371094 198.226562 70.886719 198.441406 C 70.148438 198.722656 69.414062 199.007812 68.675781 199.289062 C 68.433594 199.269531 68.207031 199.3125 67.988281 199.417969 C 66.738281 199.863281 65.488281 200.304688 64.238281 200.75 L 64.253906 200.738281 C 61.058594 201.289062 57.863281 201.839844 54.667969 202.386719 C 52.21875 202.492188 49.769531 202.597656 47.320312 202.703125 C 46.324219 202.792969 45.332031 202.882812 44.339844 202.976562 C 43.847656 203.007812 43.359375 203.042969 42.867188 203.074219 C 41.152344 203.300781 39.4375 203.523438 37.722656 203.75 C 33.273438 204.960938 28.824219 206.175781 24.378906 207.386719 C 21.894531 208.628906 19.410156 209.871094 16.925781 211.113281 C 16.726562 211.273438 16.523438 211.433594 16.320312 211.59375 C 15.820312 211.929688 15.320312 212.269531 14.816406 212.605469 L 14.804688 212.613281 C 14.53125 212.847656 14.261719 213.082031 13.988281 213.316406 C 13.25 214 12.507812 214.683594 11.769531 215.371094 C 10.800781 216.410156 9.832031 217.453125 8.863281 218.496094 C 8.144531 218.472656 7.425781 218.453125 6.707031 218.429688 C 6.523438 218.183594 6.335938 217.9375 6.148438 217.691406 C 6.09375 216.984375 6.042969 216.277344 5.988281 215.566406 C 6.519531 214.601562 7.050781 213.632812 7.582031 212.667969 L 8.863281 211.265625 C 9.144531 210.980469 9.421875 210.699219 9.699219 210.414062 L 9.664062 210.453125 C 9.894531 210.183594 10.125 209.914062 10.355469 209.640625 C 12.328125 208.378906 14.296875 207.113281 16.269531 205.851562 C 17.5625 205.171875 18.855469 204.492188 20.148438 203.8125 C 20.621094 203.644531 21.09375 203.476562 21.566406 203.308594 C 23.5625 202.492188 25.5625 201.679688 27.558594 200.863281 L 27.839844 200.878906 L 28.089844 200.738281 C 31.546875 200.042969 35 199.34375 38.457031 198.644531 C 38.949219 198.582031 39.441406 198.519531 39.933594 198.453125 C 43.128906 198.238281 46.320312 198.019531 49.515625 197.804688 C 50.742188 197.78125 51.96875 197.761719 53.195312 197.742188 C 55.914062 197.28125 58.636719 196.820312 61.355469 196.363281 C 64.042969 195.527344 66.730469 194.691406 69.417969 193.859375 C 70.671875 193.222656 71.929688 192.585938 73.183594 191.949219 L 73.167969 191.957031 C 74.746094 191.007812 76.320312 190.054688 77.898438 189.101562 C 78.074219 189.136719 78.210938 189.074219 78.308594 188.921875 C 79.40625 188.1875 80.507812 187.453125 82.027344 186.4375 L 75.355469 183.886719 C 74.628906 183.605469 73.902344 183.324219 73.171875 183.046875 C 71.691406 182.550781 70.207031 182.054688 68.726562 181.558594 L 68.734375 181.5625 C 66.777344 181.046875 64.816406 180.53125 62.859375 180.019531 L 62.871094 180.039062 C 60.878906 179.589844 58.882812 179.136719 56.886719 178.6875 L 38.105469 176.230469 C 37.742188 176.164062 37.382812 176.09375 37.019531 176.023438 C 35.773438 175.945312 34.523438 175.867188 33.277344 175.789062 L 29.558594 175.785156 L 26.628906 175.808594 C 23.660156 176.25 20.6875 176.691406 17.714844 177.132812 L 16.285156 177.28125 L 8.921875 179.484375 C 8.398438 178.707031 7.871094 177.929688 7.347656 177.152344 C 8.222656 176.207031 9.097656 175.265625 9.972656 174.324219 L 10.199219 174.324219 L 10.363281 174.171875 C 10.878906 173.984375 11.390625 173.796875 11.90625 173.609375 C 12.382812 173.496094 12.859375 173.382812 13.335938 173.273438 C 13.664062 173.117188 13.988281 172.964844 14.3125 172.8125 C 14.734375 172.5625 15.15625 172.308594 15.574219 172.058594 Z M 15.578125 172.050781 " fill-opacity="1" fill-rule="nonzero"/></g></g><g clip-path="url(#61f7dd0c1b)"><g clip-path="url(#f1f87d1a45)"><path fill="#5ce1e6" d="M 215.015625 136.722656 L 217.160156 136.34375 C 217.695312 136.175781 218.230469 136.011719 218.761719 135.84375 C 220.445312 135.546875 222.125 135.253906 223.804688 134.957031 C 229.761719 134.265625 235.71875 133.578125 241.675781 132.890625 C 245.324219 132.621094 248.972656 132.347656 252.617188 132.074219 C 257.828125 131.359375 263.039062 130.648438 268.25 129.933594 L 268.5625 129.953125 L 268.851562 129.832031 C 269.851562 129.636719 270.847656 129.441406 271.847656 129.246094 L 273.296875 129.007812 C 276.046875 128.335938 278.800781 127.660156 281.554688 126.984375 L 281.863281 127 L 282.144531 126.875 C 283.652344 126.429688 285.164062 125.980469 286.675781 125.535156 L 286.667969 125.566406 C 288.367188 125.035156 290.066406 124.503906 291.761719 123.972656 C 292.742188 123.6875 293.71875 123.398438 294.699219 123.109375 C 300.140625 120.945312 305.578125 118.78125 311.023438 116.617188 C 311.261719 116.621094 311.476562 116.554688 311.675781 116.421875 C 312.476562 116.007812 313.277344 115.59375 314.078125 115.179688 C 314.296875 115.207031 314.488281 115.144531 314.652344 115 C 314.953125 114.808594 315.25 114.621094 315.546875 114.433594 C 315.765625 114.457031 315.960938 114.402344 316.128906 114.261719 C 316.425781 114.09375 316.71875 113.921875 317.015625 113.753906 L 317 113.808594 C 317.988281 113.277344 318.976562 112.746094 319.964844 112.214844 C 320.421875 111.980469 320.882812 111.746094 321.339844 111.507812 C 322.652344 110.777344 323.964844 110.046875 325.277344 109.3125 C 328.617188 107.234375 331.960938 105.160156 335.304688 103.082031 C 335.828125 102.667969 336.347656 102.253906 336.871094 101.839844 C 337.34375 101.527344 337.816406 101.21875 338.289062 100.90625 C 338.519531 100.710938 338.75 100.519531 338.984375 100.324219 L 339.003906 100.308594 C 339.785156 99.683594 340.570312 99.054688 341.355469 98.429688 L 342.695312 97.34375 C 344.933594 95.394531 347.171875 93.445312 349.414062 91.496094 C 349.652344 91.265625 349.886719 91.039062 350.125 90.8125 C 350.941406 90.082031 351.757812 89.355469 352.574219 88.628906 C 352.78125 88.628906 352.933594 88.539062 353.03125 88.355469 C 355.601562 86.132812 358.171875 83.914062 360.742188 81.691406 L 361.027344 81.527344 C 361.8125 81.402344 362.59375 81.28125 363.375 81.15625 C 363.5625 82.109375 363.75 83.0625 363.9375 84.015625 C 362.585938 85.539062 361.238281 87.0625 359.890625 88.582031 C 359.59375 88.855469 359.300781 89.128906 359.003906 89.402344 C 358.242188 90.089844 357.484375 90.777344 356.722656 91.46875 C 356.476562 91.691406 356.230469 91.917969 355.980469 92.144531 C 355.710938 92.402344 355.441406 92.660156 355.171875 92.917969 C 354.9375 93.125 354.707031 93.335938 354.472656 93.542969 C 354.195312 93.808594 353.917969 94.074219 353.640625 94.339844 L 353.664062 94.277344 L 346.523438 100.375 C 346.242188 100.625 345.960938 100.878906 345.679688 101.128906 C 344.195312 102.339844 342.707031 103.550781 341.21875 104.761719 C 340.742188 105.101562 340.261719 105.441406 339.785156 105.777344 C 338.945312 106.386719 338.101562 107 337.261719 107.609375 C 336.585938 108.0625 335.90625 108.515625 335.230469 108.96875 C 333.519531 110.023438 331.808594 111.078125 330.101562 112.128906 C 329.832031 112.296875 329.566406 112.464844 329.296875 112.628906 C 327.867188 113.457031 326.433594 114.285156 325.003906 115.117188 C 324.734375 115.21875 324.46875 115.320312 324.203125 115.425781 C 324.003906 115.578125 323.808594 115.730469 323.613281 115.882812 L 323.53125 115.917969 C 323.195312 116.113281 322.863281 116.304688 322.53125 116.5 C 322.328125 116.464844 322.160156 116.523438 322.019531 116.675781 C 321.714844 116.867188 321.410156 117.058594 321.101562 117.25 C 320.890625 117.226562 320.710938 117.296875 320.566406 117.449219 C 319.269531 118.121094 317.972656 118.789062 316.675781 119.460938 C 311.082031 121.753906 305.488281 124.050781 299.894531 126.34375 C 298.101562 127 296.304688 127.660156 294.507812 128.316406 C 294.304688 128.269531 294.125 128.316406 293.96875 128.457031 C 292.636719 128.890625 291.304688 129.320312 289.972656 129.753906 C 289.796875 129.691406 289.648438 129.734375 289.53125 129.878906 C 287.964844 130.332031 286.398438 130.789062 284.828125 131.242188 C 284.433594 131.316406 284.035156 131.390625 283.636719 131.464844 C 279.863281 132.378906 276.085938 133.296875 272.3125 134.210938 C 268.4375 134.808594 264.566406 135.410156 260.691406 136.007812 C 259.933594 136.160156 259.171875 136.316406 258.414062 136.46875 C 257.949219 136.515625 257.484375 136.566406 257.019531 136.613281 C 254.796875 136.828125 252.578125 137.039062 250.359375 137.25 C 247.613281 137.421875 244.867188 137.59375 242.121094 137.765625 C 241.648438 137.816406 241.179688 137.871094 240.710938 137.921875 L 240.761719 137.902344 C 233.386719 138.914062 226.007812 139.925781 218.628906 140.9375 C 218.132812 141 217.636719 141.0625 217.140625 141.128906 C 216.621094 141.300781 216.101562 141.476562 215.578125 141.648438 C 208.203125 144.066406 200.824219 146.480469 193.449219 148.894531 C 192.234375 149.445312 191.019531 149.996094 189.804688 150.546875 C 189.082031 150.855469 188.363281 151.164062 187.640625 151.472656 C 184.898438 153.125 182.152344 154.777344 179.40625 156.425781 C 179.148438 156.59375 178.890625 156.761719 178.636719 156.929688 C 177.050781 158.085938 175.464844 159.238281 173.882812 160.394531 C 173.96875 160.707031 174.054688 161.015625 174.140625 161.328125 L 187.574219 162.441406 L 187.5625 162.421875 L 201.785156 162.433594 L 202.378906 161.613281 C 203.035156 160.871094 203.691406 160.128906 204.351562 159.386719 C 205.207031 158.503906 206.066406 157.621094 206.921875 156.742188 C 208.433594 155.691406 209.941406 154.640625 211.449219 153.589844 C 212.378906 153.097656 213.304688 152.601562 214.234375 152.109375 C 215.25 151.636719 216.265625 151.164062 217.28125 150.691406 L 217.289062 150.722656 C 218.730469 150.179688 220.167969 149.636719 221.605469 149.089844 L 221.597656 149.097656 C 223.363281 148.617188 225.125 148.136719 226.890625 147.660156 C 229.308594 147.160156 231.726562 146.660156 234.148438 146.160156 C 235.875 145.929688 237.605469 145.695312 239.332031 145.464844 C 239.824219 145.410156 240.3125 145.355469 240.800781 145.304688 C 243.027344 145.09375 245.257812 144.882812 247.488281 144.671875 C 248.949219 144.625 250.410156 144.582031 251.871094 144.535156 C 256.84375 144.105469 261.8125 143.671875 266.785156 143.242188 L 267.089844 143.257812 L 267.371094 143.140625 C 270.5625 142.652344 273.753906 142.164062 276.945312 141.675781 C 278.1875 141.417969 279.425781 141.15625 280.667969 140.898438 C 281.65625 140.675781 282.644531 140.453125 283.628906 140.230469 C 285.101562 139.929688 286.570312 139.625 288.039062 139.324219 C 290.28125 138.652344 292.519531 137.980469 294.761719 137.308594 L 294.742188 137.328125 C 296.304688 136.855469 297.867188 136.382812 299.433594 135.910156 L 299.675781 135.914062 L 299.871094 135.769531 C 301.203125 135.324219 302.539062 134.878906 303.871094 134.433594 L 304.109375 134.445312 L 304.296875 134.300781 C 305.605469 133.84375 306.910156 133.386719 308.214844 132.929688 C 308.410156 132.960938 308.582031 132.910156 308.726562 132.769531 C 311.207031 131.8125 313.691406 130.855469 316.171875 129.902344 L 335.324219 120.28125 C 336.351562 119.589844 337.382812 118.898438 338.414062 118.207031 L 338.425781 118.230469 C 339.878906 117.203125 341.335938 116.171875 342.789062 115.140625 C 343.25 114.8125 343.707031 114.480469 344.167969 114.152344 C 344.964844 113.507812 345.765625 112.867188 346.566406 112.222656 C 346.796875 112.058594 347.03125 111.890625 347.261719 111.726562 C 348.246094 110.902344 349.230469 110.074219 350.214844 109.25 C 350.660156 108.90625 351.101562 108.558594 351.546875 108.214844 C 353.5625 106.425781 355.582031 104.640625 357.601562 102.855469 L 358.921875 101.71875 C 359.402344 101.246094 359.882812 100.777344 360.363281 100.308594 L 360.398438 100.273438 C 362.125 99.582031 363.851562 98.886719 365.578125 98.191406 C 365.605469 98.421875 365.664062 98.640625 365.757812 98.851562 C 364.003906 101.328125 362.25 103.804688 360.492188 106.28125 L 360.464844 106.3125 L 358.941406 107.71875 L 354.53125 112.246094 C 352.039062 114.175781 349.546875 116.101562 347.054688 118.027344 C 344.132812 120.078125 341.214844 122.125 338.292969 124.171875 C 336.789062 125.082031 335.285156 125.992188 333.78125 126.902344 C 333.316406 127.171875 332.851562 127.445312 332.386719 127.71875 C 329.933594 128.9375 327.480469 130.15625 325.023438 131.375 C 320.585938 133.167969 316.148438 134.960938 311.710938 136.753906 C 310.191406 137.382812 308.671875 138.015625 307.152344 138.644531 L 307.164062 138.605469 C 305.5625 139.152344 303.960938 139.703125 302.359375 140.25 C 300.542969 140.757812 298.726562 141.269531 296.910156 141.78125 C 296.390625 141.972656 295.871094 142.164062 295.351562 142.355469 L 295.398438 142.328125 C 293.667969 142.789062 291.933594 143.253906 290.199219 143.71875 C 289.480469 143.847656 288.757812 143.972656 288.039062 144.097656 C 287.558594 144.285156 287.078125 144.472656 286.59375 144.660156 C 280.417969 145.742188 274.238281 146.820312 268.0625 147.902344 C 267.703125 148.011719 267.34375 148.117188 266.984375 148.226562 C 266.132812 148.304688 265.28125 148.378906 264.425781 148.457031 C 261.71875 148.671875 259.007812 148.886719 256.296875 149.101562 L 253.347656 149.195312 C 244.703125 150.324219 236.058594 151.453125 227.410156 152.582031 L 225.996094 152.917969 C 225.480469 153.089844 224.96875 153.261719 224.453125 153.429688 L 224.464844 153.402344 C 222.488281 154.078125 220.507812 154.757812 218.53125 155.4375 C 218.039062 155.679688 217.542969 155.925781 217.046875 156.167969 C 216.066406 156.734375 215.085938 157.296875 214.105469 157.863281 L 214.125 157.828125 C 212.191406 159.125 210.257812 160.425781 208.328125 161.722656 C 208.480469 162.085938 208.632812 162.449219 208.785156 162.816406 C 216.566406 162.199219 224.34375 161.585938 232.121094 160.972656 C 233.042969 160.917969 233.960938 160.863281 234.878906 160.808594 C 240.816406 160.792969 246.753906 160.820312 252.6875 160.710938 C 253.464844 160.699219 254.230469 159.980469 255.003906 159.585938 L 254.816406 159.496094 L 254.992188 159.609375 C 257.199219 158.121094 259.410156 156.636719 261.621094 155.152344 L 261.625 155.195312 C 263.082031 154.644531 264.535156 154.097656 265.988281 153.550781 C 266.222656 153.582031 266.433594 153.535156 266.632812 153.40625 C 268.851562 152.90625 271.070312 152.410156 273.289062 151.910156 C 273.796875 151.847656 274.308594 151.785156 274.816406 151.722656 C 275.148438 151.617188 275.480469 151.511719 275.8125 151.40625 L 276.03125 151.488281 L 276.226562 151.359375 C 281.402344 151.074219 286.578125 150.789062 291.75 150.503906 C 292.199219 150.542969 292.644531 150.582031 293.089844 150.625 C 298.867188 150.636719 304.648438 150.648438 310.425781 150.660156 C 311.824219 150.578125 313.222656 150.492188 314.617188 150.40625 C 317.328125 149.960938 320.039062 149.515625 322.746094 149.074219 C 326.195312 148.296875 329.648438 147.523438 333.097656 146.746094 C 335.324219 146.054688 337.546875 145.359375 339.773438 144.664062 L 339.761719 144.671875 C 341.742188 143.96875 343.726562 143.265625 345.707031 142.5625 C 346.191406 142.441406 346.671875 142.320312 347.15625 142.199219 C 347.40625 142.039062 347.65625 141.878906 347.90625 141.714844 L 347.890625 141.726562 C 350.042969 140.722656 352.191406 139.722656 354.339844 138.722656 C 358.335938 136.722656 362.335938 134.722656 366.332031 132.726562 C 369.054688 131.289062 371.777344 129.855469 374.5 128.421875 C 374.972656 128.148438 375.449219 127.878906 375.925781 127.609375 C 376.203125 127.398438 376.480469 127.183594 376.757812 126.972656 L 376.734375 127.003906 C 378.179688 126.773438 379.621094 126.542969 381.066406 126.3125 L 381.148438 128.421875 C 380.78125 128.859375 380.417969 129.300781 380.050781 129.738281 C 379.671875 130.050781 379.292969 130.363281 378.914062 130.675781 C 378.644531 130.890625 378.378906 131.105469 378.109375 131.324219 L 378.140625 131.324219 C 377.917969 131.578125 377.691406 131.832031 377.46875 132.085938 C 376.710938 132.605469 375.949219 133.125 375.1875 133.644531 L 374.375 134.285156 C 369.199219 136.917969 364.023438 139.550781 358.847656 142.1875 C 357.140625 143 355.429688 143.8125 353.722656 144.625 C 353.472656 144.617188 353.242188 144.675781 353.03125 144.804688 C 352.75 144.972656 352.46875 145.140625 352.1875 145.308594 L 352.214844 145.265625 C 351 145.757812 349.78125 146.25 348.566406 146.742188 L 347.105469 147.140625 C 346.859375 147.292969 346.617188 147.441406 346.371094 147.59375 C 345.640625 147.855469 344.910156 148.117188 344.175781 148.382812 C 340.214844 149.589844 336.253906 150.796875 332.292969 152.003906 C 331.832031 152.085938 331.367188 152.164062 330.90625 152.246094 C 329.398438 152.648438 327.894531 153.046875 326.386719 153.449219 L 326.402344 153.421875 C 323.207031 153.9375 320.007812 154.449219 316.8125 154.960938 C 315.582031 155.058594 314.351562 155.152344 313.117188 155.25 C 308.710938 155.441406 304.300781 155.632812 299.890625 155.820312 L 296.929688 155.671875 C 290.152344 155.898438 283.375 156.125 276.597656 156.351562 C 275.742188 156.429688 274.890625 156.503906 274.035156 156.582031 C 272.289062 157.023438 270.546875 157.460938 268.800781 157.902344 L 268.816406 157.886719 C 266.53125 158.628906 264.246094 159.371094 261.960938 160.109375 C 262.046875 160.304688 262.132812 160.5 262.21875 160.695312 C 271.066406 161.671875 279.910156 162.640625 288.757812 163.617188 C 291.941406 164.199219 295.121094 164.785156 298.304688 165.371094 C 298.820312 165.539062 299.339844 165.707031 299.855469 165.875 C 300.34375 165.972656 300.832031 166.066406 301.320312 166.160156 C 302.523438 166.652344 303.722656 167.148438 304.921875 167.640625 C 304.6875 167.277344 304.457031 166.914062 304.222656 166.554688 C 305.585938 165.703125 306.949219 164.855469 308.308594 164.003906 C 308.484375 164.019531 308.621094 163.957031 308.722656 163.8125 C 312.074219 163.277344 315.410156 162.394531 318.773438 162.28125 C 324.890625 162.070312 331.027344 162.476562 337.144531 162.300781 C 340.265625 162.210938 343.363281 161.414062 346.472656 160.933594 L 346.808594 160.933594 L 347.121094 160.816406 C 348.457031 160.398438 349.789062 159.976562 351.125 159.558594 C 351.785156 159.3125 352.445312 159.066406 353.105469 158.820312 C 354.871094 158.0625 356.636719 157.304688 358.402344 156.546875 C 358.613281 156.578125 358.800781 156.519531 358.960938 156.378906 C 359.304688 156.199219 359.648438 156.019531 359.992188 155.835938 C 360.175781 155.878906 360.316406 155.820312 360.421875 155.664062 C 361.917969 154.957031 363.410156 154.25 364.902344 153.542969 L 364.886719 153.546875 C 368.875 151.589844 372.863281 149.632812 376.851562 147.671875 L 377.078125 147.722656 L 377.296875 147.648438 C 377.566406 147.78125 377.835938 147.917969 378.105469 148.054688 C 378.25 148.273438 378.457031 148.394531 378.71875 148.417969 C 377.242188 150.339844 375.765625 152.261719 374.292969 154.179688 C 374.066406 154.164062 373.871094 154.234375 373.707031 154.390625 C 373.445312 154.578125 373.179688 154.765625 372.917969 154.953125 L 372.9375 154.945312 C 370.960938 156.179688 368.980469 157.414062 367.003906 158.648438 C 365.308594 159.199219 363.613281 159.75 361.921875 160.304688 C 357.726562 161.972656 353.535156 163.644531 349.339844 165.3125 C 346.386719 165.828125 343.4375 166.34375 340.484375 166.855469 C 336.300781 166.84375 332.117188 166.832031 327.933594 166.816406 C 327.195312 166.792969 326.460938 166.765625 325.722656 166.742188 C 324.980469 166.746094 324.242188 166.75 323.503906 166.757812 L 319.074219 166.859375 L 314.652344 166.910156 C 313.105469 167.332031 311.558594 167.753906 310.007812 168.175781 C 310.011719 168.457031 310.015625 168.734375 310.023438 169.015625 C 311.566406 169.449219 313.113281 169.882812 314.65625 170.316406 L 317.574219 171.257812 L 317.558594 171.273438 C 318.058594 171.464844 318.558594 171.65625 319.054688 171.847656 C 319.230469 172.007812 319.4375 172.074219 319.671875 172.039062 C 319.96875 172.210938 320.265625 172.378906 320.5625 172.546875 C 320.757812 172.683594 320.976562 172.75 321.214844 172.746094 C 321.953125 173.085938 322.6875 173.429688 323.425781 173.773438 C 324.871094 174.425781 326.316406 175.078125 327.761719 175.734375 C 328.058594 175.910156 328.355469 176.089844 328.652344 176.265625 C 329.175781 176.554688 329.699219 176.839844 330.222656 177.128906 L 330.859375 177.613281 C 331.574219 177.964844 332.289062 178.3125 333.003906 178.660156 C 333.28125 178.851562 333.554688 179.042969 333.832031 179.234375 C 334.023438 179.402344 334.246094 179.480469 334.5 179.476562 L 334.460938 179.441406 C 334.75 179.648438 335.039062 179.855469 335.332031 180.0625 L 335.363281 180.078125 C 336.339844 180.742188 337.316406 181.402344 338.289062 182.066406 C 338.523438 182.164062 338.753906 182.265625 338.988281 182.367188 C 339.277344 182.582031 339.566406 182.800781 339.855469 183.015625 C 340.8125 183.699219 341.773438 184.386719 342.730469 185.074219 C 342.945312 185.1875 343.160156 185.304688 343.375 185.417969 C 343.617188 185.625 343.859375 185.835938 344.105469 186.042969 C 344.578125 186.386719 345.050781 186.726562 345.523438 187.070312 L 346.191406 187.578125 C 346.804688 188.152344 347.421875 188.726562 348.039062 189.300781 L 348.238281 189.574219 C 348.339844 190.582031 348.445312 191.589844 348.546875 192.597656 L 348.582031 192.578125 C 348.105469 192.808594 347.625 193.039062 347.144531 193.265625 C 345.675781 192.542969 344.207031 191.824219 342.742188 191.101562 C 342.460938 190.890625 342.179688 190.675781 341.902344 190.464844 C 341.671875 190.285156 341.4375 190.101562 341.207031 189.921875 C 340.984375 189.796875 340.761719 189.675781 340.535156 189.554688 C 340.289062 189.355469 340.039062 189.152344 339.792969 188.949219 C 338.792969 188.238281 337.792969 187.523438 336.789062 186.808594 C 336.351562 186.519531 335.914062 186.230469 335.476562 185.945312 C 334.4375 185.253906 333.398438 184.5625 332.359375 183.875 C 331.871094 183.601562 331.382812 183.328125 330.898438 183.054688 C 329.449219 182.238281 328.003906 181.421875 326.554688 180.605469 C 326.25 180.449219 325.945312 180.289062 325.640625 180.132812 C 324.960938 179.800781 324.285156 179.464844 323.605469 179.132812 C 316.714844 176.636719 309.824219 174.144531 302.9375 171.652344 C 302.242188 171.480469 301.550781 171.3125 300.855469 171.144531 C 300.285156 170.976562 299.71875 170.800781 299.148438 170.628906 C 298.679688 170.523438 298.210938 170.417969 297.738281 170.3125 C 295.984375 169.914062 294.234375 169.519531 292.484375 169.121094 C 292.035156 169.003906 291.585938 168.882812 291.136719 168.765625 C 280.265625 167.664062 269.398438 166.5625 258.527344 165.460938 C 256.800781 165.4375 255.070312 165.417969 253.34375 165.398438 L 251.863281 165.402344 C 251.101562 165.570312 250.335938 165.738281 249.570312 165.90625 C 247.398438 165.921875 245.226562 165.933594 243.054688 165.949219 C 242.546875 165.78125 242.035156 165.613281 241.527344 165.441406 C 240.179688 165.421875 238.828125 165.328125 237.484375 165.398438 C 224.257812 166.09375 211.042969 167.109375 197.804688 167.417969 C 190.488281 167.585938 183.140625 166.578125 175.808594 166.101562 C 175.347656 166 174.890625 165.898438 174.433594 165.796875 C 172.917969 165.441406 171.402344 165.089844 169.886719 164.738281 C 169.421875 164.625 168.960938 164.511719 168.496094 164.398438 C 164.195312 162.898438 159.898438 161.394531 155.597656 159.890625 C 155.195312 159.730469 154.792969 159.574219 154.390625 159.417969 C 143.835938 154.140625 133.285156 148.859375 122.734375 143.578125 C 122.449219 143.445312 122.164062 143.3125 121.882812 143.179688 C 116.957031 140.773438 112.035156 138.363281 107.109375 135.957031 C 106.929688 135.78125 106.714844 135.710938 106.464844 135.753906 C 104.019531 134.726562 101.578125 133.699219 99.136719 132.675781 C 90.960938 129.78125 82.789062 126.886719 74.617188 123.992188 C 74.511719 123.820312 74.359375 123.761719 74.164062 123.828125 C 70.632812 122.8125 67.09375 121.796875 63.5625 120.78125 L 63.277344 120.878906 L 62.089844 120.410156 C 61.605469 120.328125 61.121094 120.246094 60.636719 120.164062 C 55.449219 119.4375 50.261719 118.710938 45.078125 117.980469 C 44.914062 117.835938 44.75 117.835938 44.585938 117.984375 C 35.597656 117.898438 26.527344 117.035156 17.648438 117.996094 C 11.582031 118.648438 5.789062 121.847656 -0.128906 123.90625 C -1.339844 123.933594 -2.554688 123.957031 -3.765625 123.984375 L -4.445312 121.757812 C -4.304688 121.59375 -4.265625 121.410156 -4.324219 121.203125 C -4.097656 120.898438 -3.875 120.597656 -3.648438 120.292969 L -3.65625 120.300781 C -3.382812 120.0625 -3.109375 119.828125 -2.835938 119.59375 L -2.863281 119.636719 C -1.863281 119.152344 -0.859375 118.667969 0.140625 118.183594 L 0.1875 118.210938 C 1.378906 117.675781 2.566406 117.140625 3.757812 116.605469 C 5.46875 115.820312 7.179688 115.035156 8.890625 114.25 C 9.90625 114.136719 10.925781 114.023438 11.941406 113.910156 C 13.144531 113.761719 14.34375 113.613281 15.546875 113.464844 C 20.039062 113.0625 24.53125 112.65625 29.023438 112.25 C 29.652344 112.242188 30.285156 112.230469 30.917969 112.222656 C 37.851562 112.699219 44.789062 113.175781 51.726562 113.652344 L 51.992188 113.757812 L 52.269531 113.71875 C 57.015625 114.648438 61.757812 115.582031 66.503906 116.511719 C 66.691406 116.632812 66.894531 116.675781 67.117188 116.644531 C 67.640625 116.8125 68.164062 116.984375 68.6875 117.152344 C 69.164062 117.277344 69.644531 117.402344 70.121094 117.527344 C 70.867188 117.730469 71.613281 117.933594 72.359375 118.136719 L 72.34375 118.117188 C 73.835938 118.597656 75.332031 119.082031 76.824219 119.558594 L 76.816406 119.554688 C 79.753906 120.59375 82.6875 121.632812 85.621094 122.671875 C 87.070312 123.128906 88.519531 123.589844 89.964844 124.046875 C 92.484375 124.972656 95.003906 125.898438 97.523438 126.824219 C 97.710938 126.953125 97.914062 127 98.136719 126.972656 C 98.417969 127.136719 98.695312 127.300781 98.976562 127.46875 C 99.398438 127.566406 99.824219 127.664062 100.25 127.761719 C 100.566406 127.9375 100.882812 128.117188 101.195312 128.292969 C 103.75 129.304688 106.300781 130.316406 108.851562 131.328125 C 109.984375 131.851562 111.117188 132.371094 112.25 132.894531 L 112.230469 132.878906 C 113.980469 133.765625 115.734375 134.652344 117.484375 135.539062 C 117.730469 135.621094 117.976562 135.699219 118.222656 135.78125 C 119.195312 136.28125 120.167969 136.78125 121.140625 137.285156 L 121.132812 137.28125 C 122.105469 137.792969 123.078125 138.308594 124.050781 138.824219 L 124.03125 138.804688 C 124.535156 139.070312 125.039062 139.335938 125.542969 139.601562 C 126.867188 140.292969 128.195312 140.980469 129.519531 141.667969 C 130.183594 142.097656 130.847656 142.53125 131.507812 142.960938 C 131.738281 143.035156 131.96875 143.113281 132.199219 143.1875 C 132.953125 143.613281 133.707031 144.039062 134.460938 144.464844 C 134.648438 144.625 134.867188 144.695312 135.113281 144.683594 C 136.597656 145.4375 138.085938 146.191406 139.570312 146.949219 C 145.21875 149.640625 150.863281 152.335938 156.507812 155.03125 L 158.066406 155.703125 L 158.722656 156.007812 C 159.230469 156.1875 159.734375 156.367188 160.242188 156.546875 L 160.222656 156.523438 C 162.675781 157.535156 165.128906 158.542969 167.09375 159.351562 C 169.117188 157.941406 170.664062 156.859375 172.210938 155.78125 C 172.453125 155.59375 172.695312 155.40625 172.9375 155.21875 C 174.347656 154.15625 175.753906 153.089844 177.160156 152.027344 C 177.726562 151.621094 178.289062 151.214844 178.855469 150.808594 L 180.269531 149.9375 C 180.753906 149.671875 181.242188 149.40625 181.726562 149.144531 C 182.695312 148.628906 183.667969 148.113281 184.636719 147.597656 C 185.136719 147.339844 185.636719 147.082031 186.136719 146.824219 C 188.132812 145.929688 190.132812 145.035156 192.128906 144.140625 C 192.59375 144.003906 193.0625 143.863281 193.53125 143.726562 C 193.804688 143.554688 194.082031 143.386719 194.359375 143.21875 C 195.554688 142.675781 196.753906 142.136719 197.949219 141.597656 C 199.433594 141.144531 200.921875 140.6875 202.40625 140.234375 C 204.363281 139.679688 206.320312 139.121094 208.277344 138.566406 C 210.523438 137.957031 212.765625 137.34375 215.011719 136.730469 Z M 215.015625 136.722656 " fill-opacity="1" fill-rule="nonzero"/></g></g><g clip-path="url(#8c163e9bf7)"><g clip-path="url(#5a493317ea)"><path fill="#5ce1e6" d="M 51.722656 135.988281 C 51.058594 135.894531 50.394531 135.800781 49.730469 135.707031 C 38.246094 133.101562 26.761719 132.757812 15.277344 135.691406 C 14.628906 135.757812 13.976562 135.828125 13.328125 135.894531 C 12.566406 135.980469 11.800781 136.066406 11.039062 136.152344 C 10.78125 136.257812 10.519531 136.363281 10.261719 136.46875 C 9.804688 136.515625 9.351562 136.566406 8.898438 136.613281 C 4.953125 137.332031 1.007812 138.054688 -2.933594 138.773438 C -4.601562 137.273438 -4.386719 135.769531 -2.933594 134.265625 C -1.429688 133.796875 0.078125 133.328125 1.585938 132.859375 C 2.058594 132.808594 2.527344 132.753906 2.996094 132.703125 C 5.484375 132.265625 7.972656 131.828125 10.460938 131.386719 C 11.917969 131.148438 13.371094 130.910156 14.828125 130.671875 C 15.320312 130.605469 15.808594 130.535156 16.296875 130.46875 C 17.34375 130.296875 18.390625 130.125 19.4375 129.949219 L 19.71875 130.003906 L 19.972656 129.867188 C 29.304688 128.667969 38.613281 128.859375 47.847656 130.632812 C 55.054688 132.015625 62.222656 133.613281 69.40625 135.117188 L 69.382812 135.089844 C 69.636719 135.226562 69.890625 135.367188 70.140625 135.503906 C 70.652344 135.597656 71.164062 135.691406 71.675781 135.785156 C 73.386719 136.292969 75.097656 136.804688 76.808594 137.3125 L 76.789062 137.296875 C 88.65625 140.953125 100.03125 145.722656 110.648438 152.207031 C 123.328125 161.039062 136.457031 169.160156 151.144531 174.152344 C 159.402344 176.957031 168.054688 178.597656 176.53125 180.761719 C 177 180.847656 177.464844 180.933594 177.933594 181.019531 C 178.519531 181.164062 179.101562 181.421875 179.691406 181.433594 C 204.226562 181.90625 228.765625 182.355469 253.304688 182.808594 C 255.039062 182.902344 256.777344 182.996094 258.515625 183.085938 L 258.710938 183.226562 L 258.933594 183.144531 C 260.753906 183.320312 262.574219 183.496094 264.394531 183.675781 C 264.867188 183.777344 265.34375 183.878906 265.816406 183.980469 C 267.796875 184.191406 269.773438 184.398438 271.753906 184.613281 L 271.746094 184.578125 C 273.234375 184.769531 274.722656 184.957031 276.207031 185.148438 C 276.6875 185.238281 277.167969 185.332031 277.648438 185.421875 C 284.566406 186.558594 291.484375 187.695312 298.398438 188.832031 C 299.003906 188.902344 299.609375 188.96875 300.210938 189.039062 C 306.960938 191.019531 313.710938 193.003906 320.460938 194.984375 L 320.464844 194.949219 C 321.476562 195.414062 322.488281 195.882812 323.5 196.351562 C 328.382812 198.824219 333.269531 201.296875 338.15625 203.769531 C 338.425781 204.042969 338.695312 204.320312 338.96875 204.59375 C 339.472656 205.292969 339.976562 205.988281 340.480469 206.6875 C 340.546875 207.417969 340.609375 208.148438 340.671875 208.878906 C 340.59375 209.125 340.515625 209.371094 340.441406 209.617188 C 339.96875 209.808594 339.5 210 339.03125 210.195312 C 338.554688 209.996094 338.082031 209.800781 337.609375 209.605469 C 336.839844 208.933594 336.070312 208.261719 335.300781 207.589844 C 334.839844 207.492188 334.378906 207.390625 333.914062 207.289062 C 333.925781 207.070312 333.871094 206.871094 333.746094 206.691406 C 331.558594 205.523438 329.371094 204.359375 327.179688 203.195312 C 326.71875 202.976562 326.257812 202.761719 325.796875 202.546875 C 319.375 200.148438 312.953125 197.753906 306.53125 195.359375 C 305.59375 195.175781 304.65625 194.992188 303.714844 194.804688 C 302.433594 194.574219 301.148438 194.339844 299.867188 194.105469 C 299.640625 194.050781 299.414062 193.996094 299.1875 193.941406 C 296.960938 193.542969 294.734375 193.144531 292.507812 192.746094 C 292.035156 192.65625 291.558594 192.566406 291.085938 192.476562 C 286.632812 191.789062 282.175781 191.105469 277.71875 190.417969 C 277.554688 190.246094 277.367188 190.21875 277.160156 190.332031 C 271.4375 189.644531 265.714844 188.957031 259.992188 188.273438 C 259.28125 188.191406 258.570312 188.113281 257.859375 188.035156 C 257.28125 187.886719 256.707031 187.625 256.128906 187.613281 C 235.503906 187.296875 214.878906 187 194.253906 186.703125 L 192.046875 186.65625 C 182.691406 185.527344 173.335938 184.394531 163.976562 183.265625 C 163.542969 183.171875 163.109375 183.078125 162.671875 182.984375 C 161.140625 182.535156 159.609375 182.082031 158.074219 181.632812 C 157.925781 181.464844 157.746094 181.421875 157.539062 181.5 C 154.117188 180.214844 150.523438 179.257812 147.304688 177.582031 C 135.074219 171.207031 122.964844 164.601562 110.808594 158.082031 C 110.6875 157.902344 110.519531 157.824219 110.304688 157.851562 C 96.292969 147.609375 80.101562 142.667969 63.542969 138.609375 L 63.375 138.515625 L 63.230469 138.648438 C 59.394531 137.761719 55.558594 136.875 51.722656 135.988281 Z M 51.722656 135.988281 " fill-opacity="1" fill-rule="nonzero"/></g></g><g clip-path="url(#05ac9b1061)"><g clip-path="url(#5b3cdf1057)"><path fill="#5ce1e6" d="M 292.484375 207.550781 C 291.382812 207.230469 290.277344 206.914062 289.171875 206.59375 C 286.089844 206.140625 283.011719 205.6875 279.933594 205.234375 L 278.828125 205.128906 C 276.488281 204.914062 274.148438 204.703125 271.8125 204.488281 C 271.109375 204.410156 270.40625 204.332031 269.703125 204.25 C 268.023438 204.078125 266.34375 203.757812 264.660156 203.757812 C 249.867188 203.742188 235.070312 203.757812 220.273438 203.824219 C 217.496094 203.835938 214.714844 204.109375 211.9375 204.257812 L 209.761719 204.207031 C 197.457031 203.554688 185.152344 202.90625 172.847656 202.253906 C 172.480469 202.222656 172.109375 202.195312 171.742188 202.167969 C 167.933594 201.492188 164.125 200.8125 160.316406 200.136719 C 159.859375 200.007812 159.402344 199.875 158.941406 199.746094 C 152.992188 198.132812 147.042969 196.519531 141.089844 194.90625 C 140.984375 194.734375 140.835938 194.691406 140.652344 194.769531 C 139.597656 194.394531 138.542969 194.023438 137.488281 193.648438 C 137.09375 193.527344 136.699219 193.40625 136.304688 193.285156 C 128.296875 189.917969 120.292969 186.550781 112.285156 183.183594 C 112.117188 183.011719 111.917969 182.949219 111.683594 182.988281 C 105.984375 180.050781 100.285156 177.117188 94.585938 174.179688 C 93.152344 173.3125 91.714844 172.445312 90.28125 171.578125 L 89.46875 171.207031 C 89.203125 171.019531 88.933594 170.832031 88.667969 170.648438 C 88.472656 170.5 88.253906 170.441406 88.011719 170.460938 C 87.742188 170.28125 87.46875 170.097656 87.195312 169.917969 C 87.042969 169.753906 86.855469 169.675781 86.628906 169.679688 C 86.324219 169.480469 86.019531 169.285156 85.714844 169.085938 C 84.03125 168.308594 82.351562 167.53125 80.671875 166.75 C 80.386719 166.59375 80.105469 166.433594 79.820312 166.273438 C 77.632812 165.453125 75.449219 164.632812 73.261719 163.8125 L 72.441406 163.332031 C 71.949219 163.230469 71.453125 163.125 70.957031 163.023438 C 69.960938 162.632812 68.960938 162.242188 67.964844 161.847656 C 67.480469 161.761719 67 161.675781 66.515625 161.589844 C 65.769531 161.367188 65.027344 161.144531 64.28125 160.925781 C 64.164062 160.761719 64.011719 160.722656 63.828125 160.796875 C 62.261719 160.375 60.695312 159.953125 59.132812 159.53125 C 58.878906 159.535156 58.625 159.535156 58.371094 159.535156 C 52.75 158.6875 47.128906 157.839844 41.507812 156.988281 C 41.542969 156.773438 41.472656 156.605469 41.289062 156.480469 C 40.847656 156.328125 40.40625 156.175781 39.964844 156.023438 C 38.964844 155.90625 37.96875 155.789062 36.96875 155.671875 C 36.230469 155.503906 35.492188 155.335938 34.753906 155.164062 C 33.789062 155.097656 32.820312 155.027344 31.855469 154.957031 C 24.167969 154.953125 16.480469 154.945312 8.796875 154.941406 C 7.359375 155.058594 5.917969 155.179688 4.480469 155.296875 C 3.550781 155.125 2.617188 154.953125 1.683594 154.78125 L 1.5625 154.96875 L 1.707031 154.796875 C 1.609375 153.875 1.515625 152.949219 1.417969 152.027344 C 1.5625 151.894531 1.621094 151.734375 1.597656 151.539062 C 3.132812 151.203125 4.65625 150.644531 6.207031 150.570312 C 13.5 150.210938 20.800781 149.988281 28.101562 149.714844 C 28.839844 149.761719 29.578125 149.808594 30.316406 149.855469 C 31.304688 150.035156 32.292969 150.210938 33.28125 150.390625 C 47.515625 152.398438 61.691406 154.699219 75.363281 159.359375 L 75.5625 159.527344 L 75.824219 159.519531 C 77.105469 160.019531 78.390625 160.519531 79.675781 161.019531 C 86.117188 164.375 92.558594 167.726562 99 171.082031 C 99.136719 171.257812 99.320312 171.332031 99.542969 171.304688 C 118.050781 181.617188 137.355469 189.933594 158.082031 194.683594 C 158.75 194.769531 159.417969 194.855469 160.089844 194.941406 C 171.578125 196.390625 183.046875 198.792969 194.566406 199.085938 C 219.3125 199.714844 244.089844 199.253906 268.855469 199.238281 C 269.511719 199.285156 270.167969 199.332031 270.820312 199.378906 C 276.566406 200.042969 282.3125 200.707031 288.058594 201.371094 L 290.207031 201.660156 C 297.09375 203.160156 303.984375 204.660156 310.871094 206.160156 C 311.75 206.367188 312.628906 206.574219 313.507812 206.777344 C 317.800781 208.261719 322.09375 209.746094 326.386719 211.226562 L 326.367188 211.203125 C 329.335938 212.929688 332.308594 214.660156 335.277344 216.386719 C 334.71875 218.90625 332.597656 218.359375 330.890625 218.628906 C 328.40625 217.609375 325.917969 216.589844 323.433594 215.566406 C 322.96875 215.324219 322.5 215.082031 322.035156 214.835938 C 321.304688 214.578125 320.574219 214.316406 319.84375 214.054688 C 319.101562 213.796875 318.359375 213.539062 317.613281 213.28125 C 316.890625 213.042969 316.167969 212.804688 315.445312 212.566406 C 315.1875 212.441406 314.933594 212.316406 314.675781 212.191406 C 314.167969 212.089844 313.660156 211.988281 313.15625 211.886719 C 312.660156 211.695312 312.160156 211.503906 311.664062 211.3125 C 309.113281 210.707031 306.566406 210.101562 304.015625 209.496094 C 303.625 209.347656 303.238281 209.203125 302.851562 209.054688 C 302.363281 208.96875 301.878906 208.878906 301.390625 208.792969 C 299.414062 208.371094 297.4375 207.949219 295.460938 207.53125 C 294.46875 207.539062 293.476562 207.542969 292.484375 207.550781 Z M 292.484375 207.550781 " fill-opacity="1" fill-rule="nonzero"/></g></g><g clip-path="url(#4c3128cc09)"><g clip-path="url(#9da56486ec)"><path fill="#5ce1e6" d="M 96.535156 279.195312 C 96.300781 279.175781 96.15625 279.277344 96.101562 279.507812 C 95.558594 279.828125 95.011719 280.144531 94.46875 280.457031 L 94.488281 280.425781 C 92.257812 282.167969 90.027344 283.910156 87.796875 285.65625 C 87.554688 285.824219 87.3125 285.992188 87.070312 286.160156 C 85.957031 285.726562 84.839844 285.296875 83.726562 284.867188 C 83.707031 284.433594 83.691406 284 83.671875 283.566406 C 85.652344 281.601562 87.636719 279.636719 89.621094 277.671875 C 90.042969 277.40625 90.464844 277.140625 90.890625 276.878906 C 92.117188 276.128906 93.347656 275.382812 94.574219 274.636719 L 94.570312 274.636719 C 99.820312 272.203125 105.070312 269.773438 110.320312 267.335938 C 119.625 264.878906 128.929688 262.417969 138.234375 259.957031 L 138.273438 260.039062 C 155.386719 258.082031 172.496094 258.1875 189.605469 260.113281 L 189.625 260.175781 C 216.242188 264.132812 241.925781 271.949219 267.746094 279.1875 C 282.238281 283.25 297.050781 285.242188 312.015625 286.246094 C 314.683594 286.425781 317.402344 286.058594 320.082031 285.789062 C 322.296875 285.5625 323.816406 285.910156 323.425781 288.632812 C 323.183594 288.824219 322.9375 289.015625 322.695312 289.207031 C 320.996094 289.550781 319.296875 289.898438 317.601562 290.242188 C 312.675781 290.226562 307.753906 290.210938 302.832031 290.191406 C 301.984375 290.132812 301.140625 290.070312 300.292969 290.011719 C 299.675781 289.878906 299.0625 289.746094 298.445312 289.613281 C 297.691406 289.574219 296.933594 289.539062 296.179688 289.5 C 293.472656 289.238281 290.765625 288.976562 288.058594 288.714844 C 286.796875 288.457031 285.539062 288.195312 284.277344 287.9375 C 282.582031 287.492188 280.882812 287.046875 279.183594 286.601562 C 278.5 286.527344 277.816406 286.453125 277.136719 286.378906 C 276.851562 286.273438 276.570312 286.164062 276.289062 286.058594 C 275.546875 285.894531 274.804688 285.730469 274.066406 285.566406 C 272.09375 285.105469 270.125 284.640625 268.15625 284.175781 L 268.164062 284.1875 C 267.664062 284 267.160156 283.8125 266.65625 283.628906 C 266.382812 283.589844 266.109375 283.554688 265.835938 283.519531 C 265.382812 283.367188 264.929688 283.214844 264.476562 283.066406 C 263.003906 282.707031 261.53125 282.347656 260.054688 281.988281 C 259.554688 281.816406 259.050781 281.644531 258.546875 281.472656 C 258.0625 281.359375 257.574219 281.25 257.089844 281.136719 C 256.578125 280.976562 256.066406 280.816406 255.554688 280.652344 C 255.351562 280.523438 255.128906 280.476562 254.886719 280.511719 C 254.132812 280.296875 253.378906 280.078125 252.621094 279.867188 C 251.660156 279.585938 250.699219 279.304688 249.738281 279.027344 C 248.230469 278.582031 246.722656 278.140625 245.214844 277.695312 C 245.027344 277.554688 244.816406 277.503906 244.585938 277.539062 C 243.816406 277.332031 243.050781 277.125 242.285156 276.917969 C 241.304688 276.644531 240.324219 276.367188 239.339844 276.09375 C 238.339844 275.8125 237.339844 275.53125 236.339844 275.25 C 235.605469 275.042969 234.875 274.835938 234.140625 274.628906 C 233.410156 274.414062 232.675781 274.199219 231.945312 273.984375 C 231.574219 273.902344 231.207031 273.820312 230.835938 273.734375 C 230.464844 273.589844 230.09375 273.441406 229.722656 273.296875 C 227.296875 272.738281 224.875 272.179688 222.449219 271.621094 C 221.675781 271.421875 220.902344 271.222656 220.128906 271.023438 C 218.90625 270.742188 217.6875 270.460938 216.464844 270.175781 C 214.238281 269.6875 212.007812 269.195312 209.78125 268.707031 L 209.789062 268.710938 C 206.339844 268.003906 202.894531 267.300781 199.445312 266.597656 C 194.59375 266.074219 189.738281 265.574219 184.890625 265.003906 C 184.09375 264.910156 183.332031 264.5 182.554688 264.238281 C 177.890625 263.933594 173.222656 263.632812 168.558594 263.332031 C 165.074219 263.347656 161.59375 263.363281 158.109375 263.382812 C 153.632812 263.667969 149.152344 263.953125 144.671875 264.238281 C 139.78125 265.019531 134.886719 265.804688 129.992188 266.589844 C 129.238281 266.789062 128.484375 266.992188 127.730469 267.191406 L 127.753906 267.167969 C 124.253906 268.152344 120.757812 269.136719 117.257812 270.117188 L 116.972656 270.101562 L 116.722656 270.25 C 115.46875 270.714844 114.210938 271.179688 112.953125 271.644531 L 112.613281 271.644531 L 112.292969 271.773438 C 109.054688 273.183594 105.816406 274.59375 102.574219 276 L 102.585938 275.964844 C 101.585938 276.484375 100.585938 277 99.585938 277.519531 C 99.359375 277.5 99.167969 277.566406 99 277.71875 C 98.179688 278.210938 97.355469 278.703125 96.53125 279.195312 Z M 96.535156 279.195312 " fill-opacity="1" fill-rule="nonzero"/></g></g><g clip-path="url(#29158743e1)"><g clip-path="url(#f9b48f63e8)"><path fill="#5ce1e6" d="M 133.855469 276.171875 C 134.066406 276.242188 134.261719 276.214844 134.441406 276.085938 C 135.496094 275.878906 136.550781 275.671875 137.605469 275.460938 C 138.277344 275.390625 138.953125 275.316406 139.628906 275.246094 L 142.597656 274.652344 L 142.585938 274.660156 C 153.898438 274.652344 165.214844 274.648438 176.53125 274.644531 L 176.523438 274.640625 C 179.722656 275.140625 182.921875 275.640625 186.121094 276.140625 L 186.105469 276.128906 C 187.097656 276.339844 188.085938 276.550781 189.074219 276.761719 C 190.296875 277.042969 191.519531 277.324219 192.742188 277.605469 C 194.714844 278.109375 196.6875 278.613281 198.660156 279.117188 L 198.640625 279.101562 C 199.394531 279.304688 200.144531 279.511719 200.894531 279.71875 C 204.027344 280.511719 207.160156 281.308594 210.296875 282.105469 C 210.851562 282.265625 211.410156 282.425781 211.964844 282.585938 C 212.964844 282.820312 213.964844 283.058594 214.960938 283.292969 L 215.308594 283.417969 L 215.671875 283.363281 L 216.40625 283.496094 C 218.628906 283.957031 220.851562 284.414062 223.074219 284.875 C 223.296875 284.972656 223.53125 285.007812 223.773438 284.980469 C 226.976562 285.480469 230.179688 285.984375 233.382812 286.484375 L 233.367188 286.472656 C 236.070312 286.847656 238.777344 287.21875 241.480469 287.59375 C 243.4375 287.714844 245.394531 287.839844 247.351562 287.960938 C 251.070312 288.191406 254.789062 288.417969 258.507812 288.644531 C 258.929688 288.691406 259.347656 288.734375 259.769531 288.78125 C 260.058594 288.828125 260.347656 288.875 260.632812 288.921875 C 261.421875 288.984375 262.207031 289.046875 262.992188 289.109375 C 263.710938 289.15625 264.429688 289.203125 265.148438 289.25 C 268.320312 289.316406 271.492188 289.378906 274.664062 289.441406 C 276.953125 290.160156 279.242188 290.875 281.53125 291.59375 C 281.21875 292.039062 280.910156 292.488281 280.597656 292.933594 C 278.890625 293.210938 277.179688 293.484375 275.46875 293.761719 C 273.757812 293.800781 272.050781 293.839844 270.339844 293.878906 C 264.433594 293.65625 258.527344 293.429688 252.621094 293.203125 C 251.390625 293.144531 250.160156 293.085938 248.929688 293.023438 C 246.21875 292.777344 243.507812 292.53125 240.796875 292.28125 L 240.585938 292.15625 L 240.351562 292.242188 C 235.09375 291.53125 229.835938 290.820312 224.578125 290.109375 L 224.5625 290.105469 C 223.828125 289.949219 223.097656 289.789062 222.363281 289.632812 C 219.421875 289.261719 216.476562 288.894531 213.53125 288.527344 C 213.535156 288.292969 213.449219 288.097656 213.269531 287.945312 C 211.617188 287.492188 209.960938 287.039062 208.304688 286.585938 C 206.085938 286.046875 203.863281 285.507812 201.644531 284.96875 L 197.203125 283.6875 C 196.734375 283.613281 196.265625 283.539062 195.796875 283.46875 C 185.945312 280.222656 175.785156 278.820312 165.457031 278.4375 C 162.746094 278.410156 160.035156 278.386719 157.328125 278.359375 C 154.351562 278.570312 151.375 278.78125 148.398438 278.992188 L 148.410156 278.949219 C 142.699219 279.945312 136.988281 280.9375 131.28125 281.933594 C 131.082031 281.855469 130.90625 281.890625 130.753906 282.035156 C 128.996094 282.488281 127.234375 282.9375 125.480469 283.390625 L 125.480469 283.34375 C 123.765625 283.875 122.050781 284.40625 120.335938 284.9375 C 120.101562 284.910156 119.882812 284.953125 119.679688 285.066406 C 116.976562 286.019531 114.273438 286.972656 111.570312 287.929688 L 110.726562 288.492188 C 108.941406 288.804688 107.152344 289.117188 105.367188 289.425781 C 104.097656 287.066406 104.9375 285.566406 107.273438 284.609375 C 109.253906 283.800781 111.207031 282.921875 113.167969 282.074219 C 113.386719 282.109375 113.582031 282.066406 113.761719 281.9375 L 122.175781 279.167969 C 122.359375 279.234375 122.507812 279.191406 122.625 279.039062 C 124.351562 278.554688 126.078125 278.070312 127.808594 277.585938 C 129.285156 277.289062 130.765625 276.996094 132.246094 276.703125 C 132.78125 276.527344 133.320312 276.347656 133.855469 276.171875 Z M 133.855469 276.171875 " fill-opacity="1" fill-rule="nonzero"/></g></g></svg>