<svg xmlns="http://www.w3.org/2000/svg" xmlns:xlink="http://www.w3.org/1999/xlink" width="500" zoomAndPan="magnify" viewBox="0 0 375 374.999991" height="500" preserveAspectRatio="xMidYMid meet" version="1.0"><path fill="#d99e82" d="M 11.136719 347.085938 C 17.820312 325.382812 28.75 284.492188 35.15625 268.925781 C 40.332031 256.363281 45.164062 243.738281 51.105469 237.789062 C 57.046875 231.847656 67.148438 232.3125 73.242188 238.386719 C 73.242188 238.386719 98.75 255.691406 107.890625 267.136719 C 119.339844 276.25 136.664062 301.816406 136.664062 301.816406 C 142.757812 307.914062 143.222656 318.007812 137.28125 323.957031 C 131.332031 329.898438 118.707031 334.730469 106.136719 339.90625 C 90.578125 346.3125 49.679688 357.222656 27.976562 363.925781 C 24.265625 365.0625 10 350.796875 11.136719 347.085938 Z M 11.136719 347.085938 " fill-opacity="1" fill-rule="nonzero"/><path fill="#ea596e" d="M 234.058594 54.835938 C 222.167969 66.726562 222.167969 85.992188 234.058594 97.882812 L 277.109375 140.941406 C 288.996094 152.820312 308.285156 152.820312 320.15625 140.941406 L 363.210938 97.882812 C 375.09375 85.992188 375.09375 66.726562 363.210938 54.835938 L 320.164062 11.789062 C 308.285156 -0.101562 289.007812 -0.101562 277.117188 11.789062 Z M 234.058594 54.835938 " fill-opacity="1" fill-rule="nonzero"/><path fill="#ffcc4d" d="M 51.105469 237.789062 L 94.183594 280.867188 L 137.191406 323.894531 L 298.636719 162.457031 L 212.53125 76.363281 Z M 51.105469 237.789062 " fill-opacity="1" fill-rule="nonzero"/><path fill="#292f33" d="M 43.617188 359.121094 C 43.617188 359.121094 15.628906 374.503906 8.066406 366.941406 C 0.507812 359.378906 15.972656 331.457031 15.972656 331.457031 C 15.972656 331.457031 42.480469 331.953125 43.617188 359.121094 Z M 43.617188 359.121094 " fill-opacity="1" fill-rule="nonzero"/><path fill="#ccd6dd" d="M 352.449219 108.648438 L 266.34375 22.542969 L 212.542969 76.351562 L 298.636719 162.457031 Z M 352.449219 108.648438 " fill-opacity="1" fill-rule="nonzero"/><path fill="#99aab5" d="M 341.683594 119.402344 L 255.589844 33.304688 L 244.824219 44.070312 L 330.917969 130.164062 Z M 320.164062 140.949219 L 234.058594 54.84375 L 223.296875 65.609375 L 309.402344 151.703125 Z M 320.164062 140.949219 " fill-opacity="1" fill-rule="nonzero"/></svg>